<svg id="Layer_1" data-name="Layer 1" xmlns="http://www.w3.org/2000/svg" xmlns:xlink="http://www.w3.org/1999/xlink" viewBox="0 0 1350.02 470.31"><defs><style>.cls-1{fill:none;}.cls-2{fill:url(#linear-gradient);}.cls-3{fill:url(#linear-gradient-2);}.cls-4{fill:url(#linear-gradient-3);}.cls-5{clip-path:url(#clip-path);}.cls-6{fill:#404879;}.cls-7{fill:#3f4778;}</style><linearGradient id="linear-gradient" x1="1033.91" y1="36.21" x2="1189.3" y2="221.39" gradientUnits="userSpaceOnUse"><stop offset="0" stop-color="#3f4778" stop-opacity="0"/><stop offset="0.15" stop-color="#3f4778" stop-opacity="0.07"/><stop offset="0.39" stop-color="#3f4778" stop-opacity="0.28"/><stop offset="0.69" stop-color="#3f4778" stop-opacity="0.61"/><stop offset="1" stop-color="#3f4778"/></linearGradient><linearGradient id="linear-gradient-2" x1="1023.21" y1="-73.09" x2="1105.91" y2="154.12" gradientTransform="translate(2197.28 332.21) rotate(180)" xlink:href="#linear-gradient"/><linearGradient id="linear-gradient-3" x1="921.09" y1="-63.97" x2="1003.79" y2="163.24" gradientTransform="translate(2197.28 332.21) rotate(180)" xlink:href="#linear-gradient"/><clipPath id="clip-path" transform="translate(-5.68 -7.94)"><rect class="cls-1" x="5.45" y="7.23" width="1349.88" height="470.67"/></clipPath></defs><title>2019-06-03_CLARIAH-DE_edit_AS</title><path class="cls-2" d="M1111.61,7.94A120.86,120.86,0,1,0,1232.47,128.8,120.87,120.87,0,0,0,1111.61,7.94Zm0,237.64A116.78,116.78,0,1,1,1228.39,128.8,116.77,116.77,0,0,1,1111.61,245.58Z" transform="translate(-5.68 -7.94)"/><path class="cls-3" d="M1132.72,412.56A120.86,120.86,0,1,0,1011.85,291.7,120.86,120.86,0,0,0,1132.72,412.56Zm0-237.64A116.78,116.78,0,1,1,1015.94,291.7,116.78,116.78,0,0,1,1132.72,174.92Z" transform="translate(-5.68 -7.94)"/><path class="cls-4" d="M1234.84,403.44A120.86,120.86,0,1,0,1114,282.58,120.86,120.86,0,0,0,1234.84,403.44Zm0-237.64a116.78,116.78,0,1,1-116.78,116.78A116.78,116.78,0,0,1,1234.84,165.8Z" transform="translate(-5.68 -7.94)"/><g class="cls-5"><path class="cls-6" d="M267.6,376.87c-14.31-13-27.66-14.31-35-14.31-28.06,0-47,20.7-47,49.14,0,27.27,19.74,48.36,47.21,48.36,15.48,0,27.47-7.93,34.82-14.89v23.4a70.4,70.4,0,0,1-35.4,9.68c-23.41,0-38.11-10.64-45.66-17.8-15.09-14.12-20.7-30.57-20.7-48.75,0-23.8,9.87-40.25,20.7-50.5,13.35-12.57,28.83-16.83,46.63-16.83,11.8,0,23.21,2.13,34.43,9.29Z" transform="translate(-5.68 -7.94)"/></g><path class="cls-7" d="M311.72,346.69V457.16h37.92v18.57H292v-129Z" transform="translate(-5.68 -7.94)"/><path class="cls-7" d="M444.05,444.58H388.91l-14.12,31.15H353.51l64.23-136.58,61.14,136.58H457.59ZM436.12,426,417,382.29,397,426Z" transform="translate(-5.68 -7.94)"/><path class="cls-7" d="M518.15,346.69c15.67,0,25.73,1.94,34.05,7.55,14.12,9.48,15.28,24.76,15.28,30.37,0,18.57-11.41,32.12-28.63,36l40.24,55.13H555.3l-37-52.81h-3.48v52.81H495.13v-129Zm-3.29,59.2h6.19c5.42,0,27.47-.58,27.47-21.09,0-18.18-17.21-19.92-26.89-19.92h-6.77Z" transform="translate(-5.68 -7.94)"/><path class="cls-7" d="M618.17,346.69v129H598.44v-129Z" transform="translate(-5.68 -7.94)"/><path class="cls-7" d="M725,444.58H669.83l-14.12,31.15H634.42l64.24-136.58,61.13,136.58H738.51ZM717,426l-19.16-43.72L678,426Z" transform="translate(-5.68 -7.94)"/><path class="cls-7" d="M795.78,397.77h55.33V346.69h19.73v129H851.11V416.34H795.78v59.39H776v-129h19.74Z" transform="translate(-5.68 -7.94)"/><path class="cls-7" d="M896,424.66h46.44v19.73H896Z" transform="translate(-5.68 -7.94)"/><path class="cls-7" d="M994.66,346.69c18,0,33.67,1.94,48,12.58,15.67,11.8,24.77,30.56,24.77,52s-8.9,40.05-25.93,52c-15.09,10.64-29.21,12.38-47.2,12.38h-26.7v-129Zm-7.35,110.47h8.51c9.68,0,23-.77,34.25-9.09,8.9-6.77,17.6-19.16,17.6-36.76,0-17-8.12-30.38-17.41-37.15-11.22-8.12-25-8.9-34.44-8.9h-8.51Z" transform="translate(-5.68 -7.94)"/><path class="cls-7" d="M1163.37,365.26h-51.46V398h49.91v18.57h-49.91v40.63h51.46v18.57h-71.2v-129h71.2Z" transform="translate(-5.68 -7.94)"/><path class="cls-6" d="M96.49,207.33c-2-19.94,22.71-34.75,38.7-46.59,14,6.91,46.59,18.56,48.56,39.68,2.17,23.29-3.95,62.38-11.65,63.17-8.48,1-24.48-46.39-30.79-45.6-6.12.79-13.23,49.95-20.93,50.74-8.49.59-22.11-39.69-23.89-61.4" transform="translate(-5.68 -7.94)"/><path class="cls-6" d="M38.06,326.57C18.51,322.23,12,294.19,5.68,275.44c10.86-11.25,32-38.5,52.71-34,22.9,5.14,58,23.1,56.46,30.6-1.58,8.29-51.72,9.08-52.91,15.2s43.44,27.84,41.66,35.54c-1.78,8.29-44,8.49-65.54,3.75" transform="translate(-5.68 -7.94)"/><path class="cls-6" d="M133.41,419c-10.27,17.38-38.89,14.81-58.63,15-7.31-13.82-26.65-42.45-16-60.61,11.84-20.14,39.68-48.17,46.59-44.22,7.3,4.14-7.31,51.92-2,55.08s40.08-32.78,46.79-28.83c7.31,4.35-5.53,44.82-16.78,63.57" transform="translate(-5.68 -7.94)"/><path class="cls-6" d="M228,225.89c18.36-7.9,40.08,10.85,56.27,22.5-2.17,15.4-3.36,49.95-22.7,58.44-21.52,9.28-60.42,15.59-63.77,8.49-3.55-7.7,36.52-37.71,34-43.43s-51.53,3-54.69-4.15c-3.36-7.9,30.8-33.17,50.93-41.85" transform="translate(-5.68 -7.94)"/><circle class="cls-7" cx="1223.93" cy="108.14" r="20.27"/><circle class="cls-7" cx="1219.18" cy="156.21" r="20.27"/><circle class="cls-6" cx="1196.76" cy="196.73" r="20.27"/><circle class="cls-6" cx="1161.35" cy="226.53" r="20.27"/><circle class="cls-6" cx="1115.92" cy="239.43" r="20.27"/><circle class="cls-6" cx="1069.43" cy="234.2" r="20.27"/><circle class="cls-6" cx="1028.32" cy="210.99" r="20.27"/></svg>