<?xml version="1.0" encoding="UTF-8"?><svg id="Ebene_1" xmlns="http://www.w3.org/2000/svg" xmlns:xlink="http://www.w3.org/1999/xlink" viewBox="0 0 219.88 199.01"><defs><style>.cls-1{fill:#7f434d;}.cls-2{fill:#fff;}.cls-3{fill:#57413b;}.cls-4{clip-path:url(#clippath);}.cls-5{fill:none;}</style><clipPath id="clippath"><rect class="cls-5" width="219.88" height="199.01"/></clipPath></defs><g class="cls-4"><path class="cls-1" d="M99.51,181.82c45.46,0,82.32-36.85,82.32-82.32S144.97,17.19,99.51,17.19,17.19,54.04,17.19,99.51s36.85,82.32,82.32,82.32"/></g><g><path class="cls-2" d="M70.6,87.88c0,.21-.02,.4-.05,.56s-.08,.3-.15,.4-.15,.19-.24,.24c-.1,.06-.2,.09-.32,.09h-9.45v28.53c0,.1-.02,.19-.07,.27-.05,.08-.13,.15-.24,.2-.11,.05-.27,.09-.47,.12-.2,.03-.43,.05-.71,.05s-.51-.02-.71-.05c-.2-.03-.35-.07-.47-.12-.11-.05-.2-.11-.25-.2-.05-.08-.07-.17-.07-.27v-28.53h-9.45c-.13,0-.24-.03-.33-.09-.09-.06-.17-.14-.23-.24-.07-.11-.11-.24-.15-.4s-.05-.35-.05-.56c0-.23,.02-.43,.05-.6,.03-.17,.08-.31,.15-.43,.06-.11,.14-.2,.23-.26,.09-.06,.2-.09,.33-.09h21.9c.11,0,.22,.03,.32,.09,.1,.06,.18,.14,.24,.26s.11,.26,.15,.43c.03,.17,.05,.37,.05,.6Z"/><path class="cls-2" d="M88.67,105.49c0,.59-.16,.99-.47,1.21-.31,.22-.61,.33-.91,.33h-15.11c0,1.37,.13,2.61,.4,3.72s.71,2.06,1.33,2.85,1.43,1.4,2.42,1.82,2.22,.64,3.67,.64c1.03,0,1.95-.09,2.77-.27s1.52-.38,2.12-.6c.6-.22,1.09-.42,1.47-.6,.38-.18,.66-.27,.82-.27,.1,0,.19,.02,.27,.07,.08,.05,.15,.13,.2,.23,.05,.11,.09,.24,.11,.4s.04,.37,.04,.61c0,.11,0,.22-.02,.33-.02,.11-.04,.21-.06,.29-.02,.09-.06,.18-.11,.26-.05,.08-.11,.16-.2,.24-.08,.08-.33,.22-.76,.43-.42,.21-.98,.41-1.67,.61-.69,.21-1.48,.39-2.39,.55-.91,.16-1.88,.24-2.93,.24-1.71,0-3.23-.26-4.56-.77-1.32-.51-2.43-1.27-3.33-2.28-.9-1-1.58-2.25-2.05-3.74-.47-1.49-.7-3.21-.7-5.17s.24-3.56,.72-5.04,1.17-2.75,2.07-3.78c.9-1.04,1.98-1.83,3.25-2.38,1.27-.55,2.67-.82,4.23-.82,1.67,0,3.09,.28,4.26,.83,1.18,.55,2.14,1.3,2.9,2.24,.76,.94,1.31,2.03,1.67,3.27s.53,2.55,.53,3.92v.59Zm-3.01-.86c.05-2.35-.49-4.19-1.62-5.51-1.13-1.32-2.77-1.98-4.92-1.98-1.11,0-2.09,.21-2.93,.62-.84,.42-1.55,.97-2.13,1.65-.58,.69-1.02,1.48-1.33,2.39-.31,.91-.49,1.85-.54,2.83h13.47Z"/><path class="cls-2" d="M110.16,117.25c.13,.2,.2,.36,.21,.5,0,.14-.04,.25-.16,.34s-.29,.16-.53,.2c-.24,.04-.54,.06-.89,.06s-.62-.01-.82-.04c-.2-.02-.37-.06-.49-.11-.12-.05-.22-.11-.29-.2-.07-.08-.14-.17-.21-.27l-5.98-9.26-5.95,9.26c-.07,.1-.13,.19-.21,.27-.07,.08-.18,.15-.31,.2-.13,.05-.3,.09-.5,.11s-.47,.04-.8,.04c-.34,0-.63-.02-.86-.06-.23-.04-.4-.11-.5-.2s-.16-.2-.15-.34,.09-.31,.23-.5l7.3-10.75-6.96-10.51c-.13-.2-.2-.36-.21-.5,0-.14,.05-.25,.17-.34s.31-.15,.55-.18c.24-.03,.55-.05,.91-.05s.62,.01,.82,.04c.2,.02,.36,.06,.48,.11,.11,.05,.2,.11,.27,.18,.06,.07,.13,.16,.2,.26l5.63,8.67,5.78-8.67c.06-.1,.13-.18,.2-.26,.06-.07,.15-.13,.26-.18,.11-.05,.25-.08,.44-.11,.19-.03,.44-.04,.77-.04,.34,0,.63,.02,.87,.05,.24,.03,.41,.09,.53,.17,.11,.08,.17,.19,.16,.33,0,.14-.09,.31-.23,.53l-7,10.41,7.27,10.85Z"/><path class="cls-2" d="M126.55,116.39c0,.34-.03,.62-.08,.83-.06,.21-.15,.38-.27,.5-.12,.12-.3,.24-.54,.34-.24,.11-.51,.2-.82,.27-.31,.07-.64,.13-.98,.17-.34,.04-.68,.06-1,.06-1.09,0-2.02-.15-2.79-.44s-1.4-.74-1.89-1.33c-.49-.6-.84-1.35-1.07-2.27-.22-.91-.33-1.99-.33-3.23v-13.79h-3.31c-.23,0-.41-.1-.54-.31s-.2-.51-.2-.92c0-.21,.02-.4,.05-.55,.03-.16,.08-.29,.15-.39s.14-.18,.23-.23c.09-.05,.19-.07,.31-.07h3.31v-5.44c0-.1,.02-.19,.06-.27s.12-.15,.23-.21c.11-.06,.26-.1,.45-.12,.19-.02,.42-.04,.7-.04,.29,0,.54,.01,.72,.04s.33,.07,.44,.12c.11,.06,.18,.13,.23,.21s.07,.17,.07,.27v5.44h6.12c.11,0,.22,.02,.31,.07,.09,.05,.17,.13,.23,.23,.06,.11,.11,.24,.15,.39,.03,.16,.05,.34,.05,.55,0,.41-.07,.71-.21,.92s-.31,.31-.53,.31h-6.12v13.4c0,1.68,.24,2.96,.72,3.85s1.36,1.32,2.63,1.32c.39,0,.75-.04,1.07-.12s.6-.17,.84-.27c.25-.1,.45-.19,.62-.27,.17-.08,.32-.12,.45-.12,.08,0,.16,.02,.22,.05,.06,.03,.12,.09,.16,.18,.04,.09,.07,.2,.1,.34s.04,.31,.04,.53Z"/><path class="cls-2" d="M151.29,104.07c0,.25-.02,.45-.06,.62-.04,.17-.1,.32-.18,.44-.08,.12-.18,.21-.28,.27-.11,.06-.22,.08-.33,.08h-8.28v9.26c0,.1-.02,.18-.07,.26s-.13,.14-.25,.2c-.11,.06-.26,.1-.43,.13-.17,.03-.39,.05-.65,.05-.25,0-.46-.02-.64-.05-.18-.03-.33-.08-.44-.13-.11-.06-.2-.12-.26-.2-.06-.07-.09-.16-.09-.26v-9.26h-8.25c-.13,0-.25-.03-.34-.08-.1-.06-.19-.15-.27-.27-.08-.12-.14-.27-.18-.44-.04-.17-.06-.38-.06-.62,0-.21,.02-.4,.06-.58,.04-.17,.1-.31,.18-.43,.08-.11,.17-.2,.27-.26,.1-.06,.21-.09,.34-.09h8.25v-9.26c0-.11,.03-.22,.09-.31,.06-.09,.14-.17,.26-.23,.11-.06,.26-.11,.44-.15,.18-.03,.39-.05,.64-.05,.26,0,.48,.02,.65,.05,.17,.03,.31,.08,.43,.15,.11,.07,.2,.14,.25,.23s.07,.19,.07,.31v9.26h8.28c.11,0,.22,.03,.33,.09,.11,.06,.2,.14,.28,.26s.14,.26,.18,.43c.04,.17,.06,.36,.06,.58Z"/></g><path class="cls-3" d="M42.31,174.22s-.04,.04-.07,.05-.06,0-.1,0c-.04-.01-.09-.04-.15-.07-.06-.03-.13-.08-.21-.14-.08-.06-.14-.11-.19-.16-.05-.05-.09-.09-.11-.13s-.03-.07-.03-.1c0-.03,.01-.06,.03-.08l4.61-6.02s.04-.04,.07-.05c.03,0,.07,0,.11,.01,.04,.01,.09,.04,.15,.07,.06,.03,.13,.08,.2,.13,.08,.06,.14,.12,.19,.17,.05,.05,.08,.09,.11,.13,.02,.04,.03,.07,.03,.1,0,.03-.01,.06-.03,.08l-4.61,6.02Z"/><path class="cls-3" d="M48.25,178.49s-.04,.04-.07,.05c-.03,0-.06,0-.1,0-.04,0-.09-.03-.15-.06-.06-.03-.13-.07-.21-.13-.08-.06-.15-.11-.2-.15-.05-.04-.08-.08-.1-.12s-.03-.07-.03-.09c0-.03,0-.05,.03-.08l1.83-2.64c.18-.26,.3-.48,.37-.66,.07-.18,.1-.36,.11-.53,0-.17-.04-.32-.12-.47-.08-.14-.2-.27-.36-.38-.21-.14-.47-.21-.78-.21-.31,0-.68,.07-1.1,.2l-2.19,3.16s-.04,.04-.07,.05-.06,0-.1,0c-.04,0-.09-.03-.15-.06-.06-.03-.13-.07-.21-.13-.08-.06-.15-.11-.19-.15-.05-.04-.08-.08-.11-.12-.02-.04-.03-.07-.03-.09s.01-.05,.03-.08l3.13-4.52s.04-.05,.06-.06c.02-.01,.05-.01,.09,0,.04,0,.09,.02,.14,.05s.11,.07,.19,.12c.07,.05,.13,.1,.18,.13s.08,.07,.09,.11c.02,.03,.02,.06,.02,.09s-.01,.05-.03,.08l-.41,.6c.45-.11,.85-.14,1.19-.1,.34,.04,.64,.15,.9,.33,.3,.21,.52,.44,.65,.68,.13,.24,.21,.5,.21,.76,0,.26-.04,.52-.14,.79-.1,.27-.27,.56-.49,.88l-1.91,2.75Z"/><path class="cls-3" d="M57.06,174.78c-.04,.07-.07,.12-.11,.15-.03,.04-.06,.06-.08,.08-.02,.02-.04,.03-.06,.03s-.04,0-.06-.02c-.02-.01-.05-.04-.08-.08-.03-.04-.06-.08-.1-.13-.04-.05-.09-.1-.16-.16-.06-.06-.14-.11-.24-.17-.13-.08-.25-.12-.37-.13-.12-.01-.23,.01-.34,.07-.11,.06-.22,.15-.33,.27-.11,.13-.22,.29-.34,.5l-.3,.52,1.06,.62s.05,.04,.06,.06c.01,.02,.02,.06,.01,.09,0,.04-.01,.08-.03,.13s-.05,.11-.09,.18c-.07,.13-.14,.21-.21,.24-.06,.04-.12,.04-.18,0l-1.06-.62-2.45,4.15s-.04,.05-.06,.06c-.03,.01-.06,.01-.1,0-.04,0-.09-.02-.15-.05-.06-.03-.13-.06-.22-.11s-.15-.09-.2-.13c-.05-.04-.09-.08-.12-.11-.02-.04-.04-.07-.04-.09,0-.03,0-.06,.02-.08l2.45-4.15-.67-.39c-.06-.03-.08-.09-.08-.16,0-.07,.04-.17,.12-.3,.04-.07,.08-.12,.11-.16,.03-.04,.07-.07,.1-.1,.03-.02,.06-.03,.09-.03s.06,0,.08,.02l.67,.4,.29-.49c.19-.33,.39-.59,.59-.79,.2-.2,.41-.34,.62-.42,.21-.08,.44-.09,.67-.05,.23,.04,.48,.14,.74,.29,.12,.07,.23,.16,.34,.25s.18,.17,.22,.23c.05,.06,.08,.11,.08,.15,0,.03,.01,.07,0,.11,0,.04-.02,.09-.04,.14-.02,.05-.05,.11-.09,.18Z"/><path class="cls-3" d="M59.58,179.11c-.04,.08-.08,.14-.11,.2-.03,.05-.06,.09-.09,.12-.03,.03-.05,.04-.08,.05s-.05,0-.08-.01c-.03-.01-.06-.04-.09-.08s-.07-.08-.11-.12c-.04-.04-.09-.09-.15-.14-.06-.05-.12-.09-.2-.13-.09-.05-.19-.08-.29-.09-.11,0-.23,0-.37,.03-.14,.03-.3,.09-.47,.17-.18,.08-.38,.19-.61,.32l-1.69,3.2s-.04,.05-.06,.06c-.02,.01-.06,.02-.1,.01s-.09-.02-.15-.04c-.06-.02-.14-.06-.23-.11-.09-.05-.16-.09-.21-.12s-.09-.07-.12-.1c-.03-.03-.04-.06-.04-.09,0-.03,0-.05,.02-.08l2.56-4.86s.03-.05,.05-.06,.05-.02,.09-.02,.09,.01,.14,.03c.05,.02,.12,.05,.2,.1,.08,.04,.14,.08,.19,.11,.05,.03,.08,.06,.1,.1,.02,.03,.03,.06,.03,.09,0,.03,0,.05-.02,.08l-.37,.71c.24-.12,.44-.22,.63-.28,.18-.06,.34-.1,.48-.12,.14-.01,.27,0,.39,.02,.12,.03,.23,.07,.33,.12,.05,.02,.1,.05,.16,.09,.06,.04,.11,.08,.17,.13,.06,.05,.11,.1,.15,.14,.04,.04,.07,.08,.08,.11s.02,.05,.02,.07c0,.02,0,.04-.01,.07,0,.03-.02,.07-.05,.12s-.06,.12-.1,.2Z"/><path class="cls-3" d="M62.28,186.09s-.05,.07-.09,.08c-.04,0-.09,0-.15,0-.06-.01-.14-.04-.23-.09-.1-.04-.17-.09-.22-.12-.05-.04-.09-.07-.1-.11-.02-.04-.01-.07,0-.12l.23-.5c-.33,.13-.65,.2-.98,.2s-.64-.06-.94-.2c-.26-.12-.48-.27-.66-.43-.18-.17-.31-.35-.4-.55-.09-.2-.13-.41-.13-.64,0-.23,.06-.46,.18-.7,.13-.28,.3-.5,.51-.65,.21-.15,.46-.25,.73-.28,.28-.04,.59-.02,.93,.06s.71,.21,1.09,.39l.69,.32,.18-.39c.09-.19,.15-.37,.18-.54,.03-.17,.02-.32-.02-.46-.04-.14-.13-.27-.25-.38-.12-.12-.29-.22-.5-.32-.22-.11-.44-.17-.64-.2-.2-.03-.39-.04-.55-.04-.16,0-.3,0-.42,.02-.12,.01-.19,0-.24-.01-.03-.01-.05-.03-.07-.06-.02-.02-.02-.05-.03-.09,0-.04,0-.08,.02-.13,.01-.05,.03-.1,.06-.16,.04-.09,.08-.16,.12-.21,.04-.05,.09-.08,.16-.11,.07-.02,.18-.04,.34-.05,.15,0,.32,0,.5,.02,.18,.02,.38,.06,.58,.11,.21,.05,.4,.12,.59,.21,.36,.17,.64,.35,.86,.55,.21,.2,.36,.41,.44,.64,.08,.23,.1,.47,.06,.74s-.13,.55-.27,.86l-1.57,3.36Zm.15-2.7l-.78-.36c-.25-.12-.48-.2-.68-.24-.2-.04-.39-.05-.55-.03-.16,.03-.3,.08-.41,.17s-.2,.21-.27,.36c-.12,.26-.13,.5-.04,.73,.09,.23,.29,.41,.58,.55,.24,.11,.49,.16,.75,.13,.26-.03,.56-.11,.91-.26l.49-1.06Z"/><path class="cls-3" d="M68.61,186.97c-.1,.26-.24,.48-.41,.65-.17,.17-.38,.29-.61,.36-.23,.07-.49,.1-.76,.08-.27-.02-.56-.09-.86-.2-.18-.07-.35-.15-.51-.24-.15-.09-.29-.18-.4-.28-.12-.09-.21-.18-.28-.26s-.12-.15-.15-.2c-.03-.05-.04-.12-.03-.2,0-.08,.03-.17,.08-.29,.03-.07,.06-.13,.08-.18,.03-.05,.05-.08,.07-.11,.02-.03,.05-.04,.07-.05,.03,0,.05,0,.08,0,.04,.02,.09,.07,.16,.15,.06,.08,.14,.18,.24,.28,.1,.11,.22,.22,.36,.33,.14,.11,.32,.21,.54,.29,.16,.06,.31,.1,.45,.11,.14,.01,.27,0,.39-.02,.12-.03,.23-.09,.32-.17,.09-.08,.16-.2,.22-.34,.05-.14,.06-.28,.03-.41s-.1-.25-.19-.38c-.09-.12-.2-.24-.33-.36-.13-.12-.26-.24-.4-.36-.14-.13-.27-.26-.39-.4-.12-.14-.22-.29-.3-.46-.08-.17-.12-.34-.13-.53-.01-.19,.03-.4,.11-.63,.08-.2,.19-.38,.34-.53,.15-.15,.33-.27,.53-.35,.21-.08,.45-.12,.71-.11,.27,0,.55,.07,.87,.19,.14,.05,.27,.11,.4,.19s.24,.15,.34,.23c.1,.08,.18,.15,.24,.22,.06,.07,.11,.13,.14,.17,.03,.05,.04,.08,.05,.11,0,.03,0,.06,0,.09,0,.03-.01,.07-.02,.11-.01,.04-.03,.1-.05,.16-.02,.06-.05,.12-.07,.17-.02,.04-.05,.08-.07,.11s-.05,.04-.07,.05c-.02,0-.05,0-.07,0-.03-.01-.08-.05-.12-.12-.05-.07-.12-.14-.2-.23-.08-.09-.19-.18-.31-.27-.12-.09-.27-.17-.45-.24-.16-.06-.31-.1-.44-.11s-.26,0-.36,.04c-.1,.04-.19,.09-.27,.17-.08,.08-.13,.17-.17,.27-.06,.15-.06,.29-.03,.42s.1,.26,.2,.38c.09,.12,.21,.24,.34,.36,.13,.12,.27,.24,.41,.37,.14,.13,.27,.26,.4,.4,.13,.14,.23,.29,.31,.45,.08,.16,.12,.33,.14,.52,.01,.19-.02,.39-.1,.61Z"/><path class="cls-3" d="M72.74,189.48c-.04,.11-.07,.2-.11,.26-.04,.06-.08,.1-.12,.12-.04,.02-.1,.04-.17,.04-.07,0-.15,0-.23,0s-.17-.02-.27-.04c-.09-.02-.18-.04-.27-.07-.27-.09-.49-.2-.66-.33-.17-.13-.29-.29-.37-.48-.08-.19-.11-.4-.09-.64,.02-.24,.07-.51,.17-.81l.99-3.05-.73-.24c-.06-.02-.09-.07-.11-.14-.01-.07,0-.18,.05-.32,.02-.07,.05-.13,.08-.18,.03-.05,.05-.08,.08-.11,.03-.03,.05-.04,.08-.05,.03,0,.06,0,.09,0l.73,.24,.4-1.24s.02-.05,.04-.07c.02-.02,.05-.03,.09-.04,.04,0,.1,0,.16,.01,.06,.01,.14,.03,.24,.06,.1,.03,.17,.06,.23,.09,.06,.03,.1,.06,.13,.08,.03,.03,.05,.06,.06,.09,0,.03,0,.06,0,.08l-.4,1.24,1.34,.43s.06,.03,.07,.05c.02,.02,.03,.05,.04,.09,0,.04,0,.08,0,.14,0,.05-.02,.12-.05,.19-.05,.14-.1,.23-.15,.29-.05,.05-.11,.07-.17,.05l-1.34-.44-.95,2.91c-.12,.36-.15,.65-.1,.87,.05,.22,.21,.37,.48,.46,.09,.03,.17,.05,.25,.05,.08,0,.14,0,.2,0,.06,0,.11,0,.16-.01,.04,0,.08,0,.11,0,.02,0,.04,.02,.05,.03,.01,.01,.02,.04,.02,.07s0,.07,0,.12c0,.05-.02,.11-.04,.18Z"/><path class="cls-3" d="M78.94,186.28c-.02,.09-.04,.16-.06,.22s-.04,.1-.06,.13c-.02,.03-.04,.05-.06,.07-.02,.01-.05,.02-.08,0-.03,0-.07-.03-.11-.06-.04-.03-.09-.06-.14-.1-.05-.03-.11-.07-.18-.1-.07-.03-.14-.06-.22-.08-.1-.03-.2-.03-.3-.02-.11,.01-.22,.05-.35,.11-.13,.06-.27,.15-.42,.27-.15,.12-.33,.27-.52,.44l-.94,3.49s-.02,.06-.04,.07c-.02,.02-.05,.03-.09,.04-.04,0-.09,0-.16,0-.06-.01-.15-.03-.24-.05-.09-.03-.17-.05-.23-.08-.06-.02-.11-.05-.14-.08-.03-.03-.05-.05-.06-.08,0-.02,0-.05,0-.08l1.43-5.3s.02-.06,.04-.08c.02-.02,.05-.03,.09-.04,.04,0,.09,0,.15,0s.13,.03,.22,.05c.09,.02,.16,.05,.21,.07,.06,.02,.1,.04,.12,.07,.03,.03,.04,.05,.05,.08,0,.03,0,.05,0,.09l-.21,.77c.2-.17,.39-.31,.55-.41s.31-.17,.45-.22c.14-.05,.26-.07,.38-.07,.12,0,.24,.02,.35,.05,.05,.01,.11,.03,.17,.06s.13,.05,.19,.09c.07,.04,.13,.07,.18,.11,.05,.03,.09,.06,.1,.09s.03,.05,.03,.07c0,.02,0,.04,0,.07,0,.03,0,.07-.02,.12s-.03,.13-.06,.22Z"/><path class="cls-3" d="M84.27,192.6s-.02,.06-.04,.08c-.02,.02-.05,.03-.09,.04-.04,0-.09,.01-.15,0-.06,0-.13-.01-.22-.03-.09-.02-.17-.04-.22-.05-.06-.02-.1-.04-.13-.06-.03-.02-.05-.05-.06-.07,0-.02,0-.05,0-.08l.14-.71c-.37,.28-.72,.47-1.05,.57-.33,.1-.65,.12-.96,.06-.36-.07-.65-.19-.87-.35-.22-.17-.39-.37-.5-.6-.11-.24-.18-.5-.19-.78s.02-.63,.09-1.02l.63-3.27s.02-.06,.04-.08c.02-.02,.05-.04,.09-.04,.04-.01,.1-.01,.16,0,.07,0,.15,.02,.24,.04s.18,.04,.24,.05c.06,.02,.11,.04,.15,.07,.03,.02,.06,.05,.07,.08s.01,.05,0,.09l-.6,3.14c-.06,.32-.09,.57-.08,.77,0,.2,.05,.37,.12,.53,.07,.15,.17,.28,.3,.38,.13,.1,.29,.17,.48,.21,.25,.05,.51,0,.79-.12,.28-.13,.59-.34,.93-.62l.72-3.77s.02-.06,.04-.08c.02-.02,.05-.03,.09-.04,.04-.01,.1-.01,.16,0,.06,0,.14,.02,.24,.04,.1,.02,.18,.04,.24,.05,.06,.02,.11,.04,.14,.07,.03,.02,.06,.05,.07,.08,.01,.02,.02,.05,.01,.09l-1.03,5.4Z"/><path class="cls-3" d="M91.54,193.53s-.02,.06-.03,.08-.05,.04-.09,.05-.09,.02-.17,.02-.16,0-.26-.02c-.11-.01-.2-.03-.27-.04-.07-.01-.13-.03-.17-.05-.05-.02-.08-.04-.11-.08s-.05-.06-.07-.1l-1.96-3.28-.35,3.03s-.02,.06-.03,.08c-.02,.02-.05,.04-.08,.05-.04,.01-.09,.02-.16,.02-.07,0-.15,0-.25-.02-.1-.01-.18-.02-.24-.04-.06-.01-.11-.03-.15-.05-.04-.02-.06-.04-.07-.07s-.02-.05-.01-.08l.93-8.1s.01-.06,.03-.08c.02-.02,.05-.04,.09-.05s.09-.02,.16-.02c.07,0,.15,0,.24,.02,.1,.01,.18,.02,.25,.04,.06,.02,.11,.03,.15,.05,.04,.02,.06,.04,.07,.07,.01,.03,.02,.05,.01,.09l-.56,4.94,2.32-2.03s.08-.07,.11-.09,.09-.04,.14-.05c.05-.01,.11-.02,.18-.02,.07,0,.15,0,.25,.02,.1,.01,.19,.02,.25,.04,.07,.01,.12,.03,.16,.05,.04,.02,.07,.04,.09,.06,.01,.02,.02,.05,.02,.09,0,.05-.02,.1-.06,.14-.03,.05-.08,.1-.15,.15l-2.2,1.75,1.89,3.13c.04,.07,.08,.13,.09,.18,.02,.04,.02,.08,.02,.12Z"/><path class="cls-3" d="M96.16,193.43c0,.12-.02,.21-.04,.28s-.05,.12-.08,.15-.08,.06-.15,.08c-.07,.02-.14,.04-.23,.06-.08,.01-.17,.02-.27,.03-.09,0-.19,0-.28,0-.28-.02-.53-.07-.72-.16s-.36-.21-.48-.37c-.12-.16-.2-.36-.25-.6-.04-.24-.06-.51-.04-.83l.2-3.2-.77-.05c-.06,0-.11-.04-.14-.11-.03-.07-.04-.17-.03-.32,0-.08,.01-.14,.03-.19s.03-.09,.05-.13c.02-.03,.04-.05,.07-.07,.03-.01,.06-.02,.09-.02l.76,.05,.08-1.3s0-.05,.03-.08c.02-.02,.04-.04,.08-.06,.04-.02,.09-.03,.16-.03,.07,0,.15,0,.24,0,.1,0,.19,.02,.25,.03,.06,.01,.11,.03,.15,.05s.06,.04,.08,.07c.01,.03,.02,.05,.02,.08l-.08,1.3,1.41,.09s.06,.01,.08,.03c.02,.02,.04,.04,.06,.08,.02,.04,.03,.08,.03,.13,0,.05,0,.12,0,.2,0,.15-.03,.25-.08,.31-.04,.06-.09,.09-.15,.09l-1.41-.09-.19,3.06c-.02,.38,.01,.67,.11,.87,.1,.2,.29,.31,.58,.33,.09,0,.18,0,.25-.01,.07-.01,.14-.03,.2-.05,.06-.02,.11-.03,.15-.05,.04-.02,.08-.02,.11-.02,.02,0,.04,0,.06,.02,.02,.01,.03,.03,.04,.06,0,.03,.01,.07,.02,.12,0,.05,0,.11,0,.18Z"/><path class="cls-3" d="M103.14,193.85s0,.06-.02,.08c-.01,.02-.04,.04-.08,.06-.04,.02-.08,.03-.14,.04-.06,0-.13,.01-.22,.02-.09,0-.17,0-.23,0s-.11-.02-.14-.04c-.03-.02-.06-.03-.07-.06-.01-.02-.02-.05-.02-.08v-.73c-.32,.35-.62,.61-.93,.77-.3,.16-.61,.25-.92,.25-.37,0-.68-.05-.93-.17-.25-.12-.46-.28-.61-.49s-.27-.45-.34-.73c-.07-.28-.11-.62-.11-1.02l-.04-3.33s0-.06,.02-.08c.01-.02,.04-.04,.08-.06,.04-.02,.09-.03,.16-.04,.06,0,.15-.01,.24-.01s.18,0,.24,0c.06,0,.12,.02,.16,.04,.04,.02,.07,.04,.08,.06,.02,.02,.03,.05,.03,.08l.04,3.2c0,.32,.03,.58,.08,.77,.05,.19,.12,.36,.22,.49,.1,.13,.22,.24,.37,.31s.32,.11,.51,.11c.25,0,.5-.09,.75-.28s.51-.45,.79-.8l-.05-3.84s0-.06,.02-.08c.01-.02,.04-.04,.08-.06,.04-.02,.09-.03,.15-.04,.06,0,.15-.01,.25-.01,.1,0,.18,0,.24,0,.06,0,.12,.02,.15,.04,.04,.02,.06,.04,.08,.06,.02,.02,.03,.05,.03,.08l.07,5.49Z"/><path class="cls-3" d="M108.52,188.39c0,.09,0,.17,0,.23s0,.11-.02,.14c0,.04-.02,.06-.04,.08s-.04,.03-.07,.03-.07,0-.12-.02c-.05-.01-.1-.03-.16-.04-.06-.01-.13-.03-.2-.04-.07-.01-.15-.01-.24,0-.1,0-.2,.03-.29,.08-.09,.05-.19,.12-.29,.22-.1,.1-.21,.23-.31,.39-.11,.16-.23,.36-.35,.59l.23,3.61s0,.06-.02,.08c-.01,.02-.04,.04-.08,.06-.04,.02-.09,.04-.15,.05-.06,.01-.15,.02-.25,.03-.1,0-.18,0-.24,0-.07,0-.12-.01-.16-.03-.04-.01-.07-.03-.08-.05-.02-.02-.02-.05-.03-.08l-.35-5.48s0-.06,.01-.08c.01-.02,.03-.04,.07-.07,.04-.02,.08-.04,.14-.05,.06,0,.13-.02,.22-.02,.09,0,.16,0,.22,0,.06,0,.11,.01,.14,.03,.03,.02,.06,.04,.07,.06,.02,.02,.02,.05,.03,.08l.05,.8c.14-.23,.27-.42,.39-.56,.12-.14,.24-.26,.35-.35,.11-.09,.23-.15,.34-.19,.11-.04,.23-.06,.35-.07,.05,0,.11,0,.18,0,.07,0,.14,0,.21,.02,.07,.01,.14,.03,.2,.04,.06,.02,.1,.03,.13,.05,.03,.02,.04,.04,.05,.05,0,.02,.02,.04,.03,.07,0,.03,.01,.07,.02,.12,0,.06,.01,.13,.02,.22Z"/><path class="cls-3" d="M114.41,194.44c0,.05-.02,.1-.04,.13-.02,.04-.05,.06-.09,.09-.04,.02-.08,.04-.14,.06-.06,.02-.13,.03-.21,.05-.1,.02-.18,.02-.25,.02-.07,0-.12-.01-.16-.03-.04-.02-.07-.05-.08-.09-.01-.04-.01-.08,0-.14l1.99-10.59c0-.05,.02-.1,.04-.13s.05-.06,.08-.09c.04-.02,.08-.04,.14-.06,.06-.02,.13-.03,.22-.05,.1-.02,.18-.02,.25-.02,.07,0,.12,.01,.16,.03,.04,.02,.07,.05,.08,.08,.01,.04,.02,.09,0,.14l-1.99,10.59Z"/><path class="cls-3" d="M127.39,187.7c.06,.24,.09,.47,.09,.69,0,.22-.04,.42-.11,.62s-.16,.37-.28,.53c-.12,.16-.27,.31-.44,.45-.17,.13-.36,.25-.57,.35-.21,.1-.46,.19-.75,.27l-1.99,.54c-.09,.02-.18,.02-.28-.02-.1-.04-.17-.14-.21-.29l-1.84-6.8c-.04-.15-.03-.27,.03-.35s.14-.14,.23-.16l1.73-.47c.46-.12,.84-.18,1.15-.17,.31,0,.59,.07,.83,.18s.44,.28,.6,.49c.16,.21,.29,.47,.37,.77,.05,.18,.07,.36,.08,.54,0,.18-.02,.35-.07,.51-.05,.16-.12,.32-.22,.46-.1,.14-.22,.27-.37,.39,.22-.02,.43,0,.64,.06,.21,.06,.4,.15,.58,.27,.18,.12,.34,.28,.47,.48,.14,.19,.24,.42,.31,.68Zm-2.45-3c-.05-.18-.12-.34-.21-.48-.09-.14-.21-.24-.34-.31s-.3-.12-.49-.12c-.19,0-.43,.03-.72,.11l-1.05,.28,.67,2.47,1.15-.31c.26-.07,.46-.16,.61-.27s.25-.24,.33-.39c.07-.14,.12-.3,.12-.47,0-.17-.01-.33-.06-.5Zm1.4,3.35c-.06-.23-.15-.42-.27-.57-.12-.15-.26-.27-.44-.35-.17-.08-.37-.12-.6-.13-.23,0-.5,.04-.82,.12l-1.21,.33,.73,2.69,1.47-.4c.23-.06,.43-.15,.58-.25,.16-.1,.29-.22,.39-.37,.1-.14,.17-.31,.2-.49,.03-.18,.02-.38-.04-.59Z"/><path class="cls-3" d="M133.66,184.58c.05,.15,.05,.27,0,.36-.05,.09-.13,.15-.22,.19l-3.41,1.2c.1,.29,.22,.54,.36,.75,.14,.21,.3,.37,.5,.49,.19,.12,.41,.18,.66,.19,.25,.01,.53-.04,.84-.15,.25-.09,.46-.18,.64-.29,.18-.11,.33-.21,.45-.31s.22-.19,.3-.26,.14-.12,.18-.13c.03,0,.05-.01,.08,0s.05,.02,.07,.04,.04,.06,.07,.1c.02,.05,.04,.1,.07,.17,.02,.05,.03,.09,.04,.13,0,.04,.02,.07,.02,.1,0,.03,0,.06,0,.09,0,.03-.01,.06-.03,.08-.01,.03-.06,.09-.15,.17s-.21,.18-.35,.28c-.15,.1-.33,.21-.53,.33-.2,.11-.43,.21-.67,.3-.43,.15-.82,.22-1.18,.22-.36,0-.69-.09-.99-.25-.3-.16-.57-.39-.81-.71-.24-.32-.44-.71-.6-1.17-.16-.45-.24-.87-.25-1.26s.05-.75,.18-1.08c.13-.32,.32-.61,.58-.85,.26-.24,.58-.43,.96-.56,.41-.14,.78-.2,1.11-.17s.63,.12,.89,.28,.49,.37,.68,.63c.19,.27,.35,.57,.47,.91l.06,.17Zm-1.06,.05c-.16-.5-.41-.85-.75-1.06s-.73-.22-1.19-.06c-.24,.08-.43,.2-.57,.35-.15,.15-.25,.32-.32,.51-.07,.19-.1,.39-.1,.61,0,.22,.04,.43,.1,.65l2.83-1Z"/><path class="cls-3" d="M139.31,184.92c.05,.11,.08,.2,.09,.27s.01,.13,0,.17c-.02,.04-.05,.09-.1,.14-.05,.05-.11,.1-.18,.15-.07,.05-.14,.1-.22,.15-.08,.05-.16,.09-.25,.13-.26,.11-.5,.18-.72,.19-.22,.01-.42-.03-.6-.11-.18-.09-.34-.23-.49-.42-.15-.19-.29-.43-.41-.72l-1.29-2.94-.7,.31c-.06,.02-.11,.01-.17-.03s-.12-.13-.18-.27c-.03-.07-.05-.13-.06-.18-.01-.05-.02-.1-.02-.14s.01-.07,.03-.09c.02-.02,.04-.04,.07-.06l.7-.31-.52-1.2s-.02-.05-.01-.08c0-.03,.02-.06,.05-.09,.03-.03,.07-.06,.13-.1,.06-.03,.13-.07,.22-.11,.09-.04,.17-.07,.23-.09s.11-.03,.16-.02c.04,0,.07,.01,.1,.03s.04,.04,.05,.06l.52,1.2,1.29-.57s.06-.02,.09-.01c.03,0,.06,.02,.09,.04,.03,.02,.06,.06,.09,.1,.03,.04,.06,.1,.09,.17,.06,.13,.08,.24,.08,.31,0,.07-.04,.12-.09,.15l-1.29,.57,1.23,2.81c.15,.35,.32,.59,.5,.72,.18,.13,.4,.14,.67,.03,.09-.04,.16-.08,.22-.13,.06-.05,.11-.09,.16-.13,.04-.04,.08-.08,.11-.11s.06-.06,.09-.07c.02,0,.04-.01,.06,0s.04,.01,.06,.04c.02,.02,.05,.05,.07,.1,.03,.04,.05,.09,.08,.16Z"/><path class="cls-3" d="M141.82,178.42c.04,.08,.07,.15,.1,.2,.02,.06,.04,.1,.04,.14,0,.04,0,.07,0,.09,0,.03-.03,.04-.06,.06s-.07,.02-.12,.03c-.05,0-.11,.01-.17,.02-.06,0-.13,.02-.2,.04-.07,.02-.15,.05-.22,.08-.09,.04-.17,.11-.24,.19-.07,.08-.13,.19-.19,.32-.06,.13-.1,.29-.14,.49-.04,.19-.07,.42-.1,.68l1.61,3.24s.02,.06,.01,.08-.02,.06-.04,.09c-.03,.03-.07,.06-.12,.1-.05,.04-.13,.08-.22,.12-.09,.04-.16,.08-.22,.1-.06,.02-.11,.03-.16,.04-.04,0-.07,0-.1-.02-.02-.01-.04-.04-.05-.06l-2.45-4.92s-.02-.06-.02-.08c0-.03,.01-.05,.04-.09s.06-.06,.11-.1c.05-.03,.12-.07,.2-.11s.15-.07,.2-.09c.06-.02,.1-.03,.14-.03s.07,0,.09,.02,.04,.03,.06,.06l.36,.72c.04-.26,.08-.49,.14-.67s.12-.34,.19-.46c.07-.12,.15-.22,.24-.3,.09-.08,.19-.14,.29-.2,.05-.02,.1-.05,.17-.07s.13-.05,.2-.06c.07-.02,.14-.03,.2-.04,.06,0,.11,0,.14,0,.03,0,.05,.02,.07,.03,.02,.01,.03,.03,.05,.05,.02,.02,.04,.06,.07,.11s.06,.12,.1,.2Z"/><path class="cls-3" d="M143.04,175.19c.12,.21,.15,.37,.12,.49-.04,.12-.16,.24-.37,.35-.21,.12-.37,.16-.49,.13s-.23-.15-.35-.35c-.11-.21-.15-.37-.12-.49,.04-.12,.16-.24,.37-.35,.21-.12,.37-.16,.48-.13,.12,.03,.23,.15,.35,.35Zm3.48,6.47s.02,.06,.02,.08c0,.03-.02,.06-.04,.09-.02,.03-.06,.07-.12,.11-.05,.04-.12,.08-.21,.13-.08,.05-.16,.08-.22,.11-.06,.03-.11,.04-.15,.04-.04,0-.07,0-.1-.01-.02-.01-.04-.03-.06-.06l-2.68-4.79s-.02-.05-.02-.08c0-.03,.01-.06,.04-.09,.03-.03,.07-.07,.12-.11s.12-.08,.21-.13c.09-.05,.16-.09,.22-.11s.11-.04,.15-.04c.04,0,.07,0,.1,.01,.03,.01,.05,.03,.06,.06l2.68,4.79Z"/><path class="cls-3" d="M151.06,175.4c.09,.14,.11,.25,.08,.35-.03,.1-.09,.18-.18,.23l-3.07,1.92c.16,.26,.33,.48,.51,.65s.38,.3,.59,.37c.21,.07,.44,.09,.69,.05,.24-.04,.51-.15,.79-.33,.22-.14,.41-.28,.56-.42,.15-.15,.28-.28,.37-.4,.1-.12,.18-.23,.24-.32,.06-.09,.11-.14,.15-.17,.03-.02,.05-.02,.08-.02,.03,0,.05,0,.08,.03,.02,.02,.05,.05,.09,.09,.03,.04,.07,.09,.11,.15,.03,.04,.05,.08,.07,.12s.03,.07,.04,.1c.01,.03,.02,.06,.02,.09,0,.03,0,.06,0,.09,0,.03-.04,.1-.11,.2-.06,.1-.16,.22-.28,.35-.12,.13-.27,.28-.45,.43-.17,.16-.37,.3-.59,.44-.38,.24-.75,.4-1.11,.47-.35,.07-.7,.07-1.02-.02-.33-.09-.64-.26-.94-.51-.3-.26-.58-.59-.84-1.01-.25-.4-.42-.79-.52-1.18-.1-.38-.12-.75-.06-1.09,.05-.34,.18-.66,.39-.95,.2-.29,.47-.54,.81-.76,.37-.23,.71-.36,1.04-.41,.33-.04,.64-.02,.93,.08,.29,.09,.56,.25,.8,.47,.25,.22,.46,.48,.65,.78l.1,.15Zm-1.02,.28c-.27-.45-.59-.74-.96-.87-.37-.12-.76-.06-1.17,.2-.21,.13-.37,.29-.48,.47-.11,.18-.18,.37-.2,.57-.03,.2-.02,.4,.04,.61,.05,.21,.13,.41,.24,.61l2.54-1.59Z"/><path class="cls-3" d="M157.2,171.06c.29,.38,.51,.75,.66,1.11,.15,.37,.22,.72,.23,1.05,0,.33-.07,.65-.21,.94-.15,.29-.37,.55-.67,.78-.14,.11-.28,.19-.42,.25-.14,.06-.29,.11-.45,.13-.16,.02-.33,.03-.52,.03-.19,0-.39-.03-.62-.06l.41,.53s.03,.05,.03,.08c0,.03,0,.06-.03,.1-.02,.03-.05,.07-.09,.11-.04,.04-.09,.09-.16,.14-.07,.05-.12,.09-.17,.12-.05,.03-.09,.05-.13,.06-.04,0-.07,0-.09,0-.03-.01-.05-.03-.07-.06l-4.96-6.47s-.03-.05-.04-.08c0-.03,0-.06,.03-.1,.02-.04,.05-.08,.1-.12,.05-.04,.11-.1,.19-.16,.08-.06,.15-.11,.21-.14,.06-.03,.11-.05,.14-.06,.04-.01,.07,0,.1,0,.03,0,.05,.03,.07,.05l2,2.61c.03-.23,.07-.44,.12-.62,.05-.18,.11-.35,.19-.49,.07-.15,.16-.28,.25-.39,.1-.11,.21-.22,.34-.32,.32-.24,.63-.39,.96-.43,.32-.04,.63-.02,.94,.09,.3,.11,.6,.27,.88,.51,.28,.23,.54,.51,.79,.83Zm-.76,.73c-.17-.22-.35-.43-.55-.61-.2-.18-.4-.32-.61-.42s-.42-.14-.63-.13-.43,.09-.63,.25c-.1,.08-.2,.17-.27,.28s-.14,.23-.2,.38c-.05,.15-.09,.32-.12,.51-.03,.19-.05,.42-.05,.68l1.33,1.74c.43,.1,.79,.14,1.1,.13,.31-.01,.57-.1,.79-.27,.2-.15,.34-.33,.4-.54s.09-.42,.05-.65c-.03-.23-.11-.46-.22-.69s-.25-.45-.4-.65Z"/><path class="cls-3" d="M12.4,91.42c.37,.02,.69,.11,.97,.27,.28,.15,.51,.36,.7,.61s.32,.55,.4,.88c.08,.33,.11,.69,.09,1.07-.02,.26-.05,.51-.11,.73-.06,.22-.13,.42-.2,.59-.08,.17-.15,.32-.23,.43-.08,.12-.14,.2-.19,.24-.05,.04-.12,.07-.19,.09-.08,.02-.18,.02-.3,.01-.09,0-.16-.01-.22-.03-.06-.01-.11-.03-.14-.04-.04-.02-.06-.04-.07-.07s-.02-.05-.02-.09c0-.06,.04-.13,.12-.23,.08-.1,.16-.23,.25-.38,.09-.16,.18-.35,.27-.57,.09-.22,.14-.49,.16-.79,.01-.23,0-.44-.05-.63-.05-.19-.12-.36-.23-.5-.1-.14-.23-.26-.39-.34-.16-.08-.34-.13-.55-.14-.22-.01-.42,.03-.58,.12-.17,.09-.31,.22-.44,.38-.13,.16-.25,.34-.37,.55-.11,.21-.23,.42-.35,.64-.12,.22-.25,.43-.38,.63-.14,.2-.3,.38-.48,.54-.18,.16-.39,.28-.63,.37-.24,.09-.51,.12-.83,.1-.33-.02-.62-.1-.87-.23-.25-.14-.46-.32-.62-.54-.16-.22-.28-.49-.35-.79-.07-.3-.1-.62-.08-.96,.01-.17,.04-.35,.08-.52s.09-.34,.15-.49c.06-.15,.13-.29,.2-.41,.07-.12,.13-.19,.17-.23,.04-.04,.07-.06,.1-.07,.02-.01,.05-.02,.09-.02,.04,0,.08,0,.13-.01,.05,0,.11,0,.19,0,.07,0,.14,.01,.19,.02,.06,0,.1,.02,.14,.04,.04,.01,.07,.03,.08,.06,.02,.02,.02,.05,.02,.08,0,.04-.04,.11-.1,.21-.06,.09-.13,.2-.21,.34-.08,.13-.15,.29-.23,.48-.07,.18-.11,.4-.13,.63-.01,.22,0,.41,.05,.58,.05,.17,.12,.3,.21,.42,.09,.11,.2,.2,.33,.26,.13,.06,.27,.1,.42,.11,.22,.01,.41-.02,.58-.12,.16-.09,.31-.22,.45-.38,.13-.16,.26-.35,.37-.55s.23-.42,.35-.64c.12-.22,.25-.43,.38-.64,.14-.21,.3-.39,.47-.55,.18-.16,.39-.28,.62-.37,.23-.09,.51-.12,.82-.1Z"/><path class="cls-3" d="M15.21,85.71s.08,.03,.1,.06c.02,.04,.03,.08,.04,.14,0,.06,0,.14-.02,.25-.01,.1-.03,.19-.05,.25-.02,.06-.05,.1-.07,.13-.03,.02-.07,.03-.11,.03l-.54-.08c.22,.27,.38,.57,.48,.88,.1,.31,.13,.63,.08,.96-.04,.29-.11,.54-.22,.76-.11,.22-.24,.4-.41,.55-.17,.14-.36,.25-.57,.31-.22,.06-.46,.07-.72,.04-.31-.04-.56-.14-.77-.3s-.37-.36-.49-.62c-.12-.25-.19-.56-.22-.91-.03-.35-.01-.73,.05-1.16l.11-.75-.42-.06c-.21-.03-.4-.03-.57-.01s-.31,.08-.43,.16c-.12,.08-.22,.2-.3,.35-.08,.15-.13,.34-.16,.57-.03,.25-.04,.47,0,.67s.07,.38,.12,.54c.05,.16,.1,.29,.14,.4,.04,.11,.06,.18,.06,.23,0,.03-.02,.06-.04,.08-.02,.02-.05,.04-.08,.05s-.08,.02-.13,.02c-.05,0-.11,0-.17-.01-.1-.01-.18-.03-.24-.05-.06-.02-.11-.06-.15-.13-.04-.06-.09-.16-.14-.31-.05-.14-.09-.3-.13-.49-.03-.18-.06-.38-.07-.59-.01-.21,0-.42,.03-.63,.05-.39,.15-.72,.27-.98,.13-.26,.29-.46,.48-.61,.2-.15,.42-.24,.69-.28,.26-.04,.57-.04,.91,0l3.67,.51Zm-2.62,.64l-.12,.85c-.04,.27-.05,.52-.03,.72,.02,.21,.06,.38,.14,.53,.07,.15,.17,.26,.28,.34,.12,.08,.26,.13,.43,.15,.28,.04,.52-.02,.71-.17,.19-.16,.31-.4,.35-.72,.04-.26,0-.51-.1-.76-.1-.24-.27-.51-.51-.79l-1.15-.16Z"/><path class="cls-3" d="M17.39,75.66s.06,.02,.07,.04c.02,.02,.03,.05,.04,.09,0,.04,0,.09,0,.16,0,.06-.02,.15-.04,.24-.02,.1-.05,.18-.07,.24s-.05,.11-.07,.14c-.02,.03-.05,.06-.08,.07-.03,0-.05,.01-.09,0l-3.24-.79c-.23-.06-.44-.09-.63-.09s-.37,.02-.53,.07c-.16,.05-.29,.14-.39,.26-.1,.12-.18,.27-.22,.45-.06,.23-.02,.47,.09,.74,.12,.27,.31,.58,.58,.94l3.73,.91s.06,.02,.07,.04c.02,.02,.03,.05,.04,.09,0,.04,0,.1,0,.16,0,.06-.02,.15-.05,.24-.02,.09-.05,.17-.07,.23s-.05,.11-.07,.15c-.02,.03-.05,.05-.08,.06s-.05,0-.08,0l-3.24-.79c-.23-.06-.44-.08-.63-.09-.2,0-.37,.02-.53,.08-.16,.05-.29,.14-.39,.25-.1,.11-.18,.26-.22,.44-.05,.23-.02,.47,.09,.75s.31,.58,.58,.93l3.73,.91s.06,.02,.07,.04c.02,.02,.03,.05,.04,.09,0,.04,0,.09,0,.16,0,.06-.02,.15-.05,.25-.02,.1-.05,.17-.07,.23-.02,.06-.05,.11-.07,.14-.02,.03-.05,.05-.08,.06s-.05,0-.08,0l-5.34-1.3s-.06-.02-.08-.04c-.02-.02-.03-.05-.04-.09,0-.04,0-.09,0-.15s.02-.13,.04-.22c.02-.09,.04-.16,.06-.21,.02-.06,.04-.1,.07-.12,.03-.03,.05-.04,.08-.05,.02,0,.05,0,.09,0l.7,.17c-.26-.38-.44-.73-.52-1.05-.09-.32-.1-.63-.03-.91,.05-.22,.13-.41,.22-.58,.09-.16,.2-.3,.33-.41s.26-.2,.42-.26c.15-.06,.31-.11,.49-.13-.15-.23-.27-.43-.37-.63-.09-.19-.17-.37-.21-.54-.05-.17-.07-.33-.07-.48,0-.15,.01-.3,.05-.44,.08-.34,.21-.62,.39-.82,.18-.2,.38-.35,.62-.45,.24-.1,.5-.14,.78-.14,.29,0,.58,.04,.88,.12l3.37,.82Z"/><path class="cls-3" d="M20.86,65.87s.05,.03,.07,.05c.02,.02,.02,.06,.03,.1s0,.09-.02,.16-.04,.14-.08,.23c-.04,.09-.07,.17-.1,.23-.03,.06-.06,.1-.09,.13-.03,.03-.06,.05-.08,.06-.03,0-.06,0-.08,0l-3.12-1.19c-.22-.08-.42-.14-.62-.17-.19-.03-.37-.03-.53,0-.16,.03-.3,.1-.42,.21-.12,.1-.21,.24-.28,.42-.08,.22-.08,.47,0,.75,.08,.28,.24,.62,.46,1l3.59,1.36s.05,.03,.07,.05c.02,.02,.02,.06,.03,.1,0,.04,0,.1-.02,.16-.02,.06-.04,.14-.08,.23-.03,.09-.07,.16-.1,.22-.03,.06-.06,.1-.09,.14-.03,.03-.06,.05-.08,.05-.03,0-.05,0-.08,0l-3.12-1.19c-.22-.08-.42-.14-.62-.16-.2-.03-.37-.02-.53,.01-.16,.03-.3,.1-.42,.2-.12,.1-.21,.24-.28,.41-.08,.22-.08,.47,0,.75s.24,.62,.46,1l3.59,1.36s.05,.03,.07,.05c.02,.02,.02,.05,.03,.09,0,.04,0,.09-.02,.16-.02,.06-.04,.14-.08,.24-.03,.09-.07,.17-.1,.22s-.06,.1-.09,.13c-.03,.03-.06,.05-.08,.05-.03,0-.05,0-.08,0l-5.13-1.95s-.05-.03-.07-.05c-.02-.02-.03-.05-.03-.09,0-.04,0-.09,.02-.14,.01-.06,.04-.13,.07-.21,.03-.08,.06-.15,.09-.2,.03-.05,.05-.09,.08-.11,.03-.02,.06-.04,.08-.04,.03,0,.05,0,.09,0l.68,.26c-.21-.41-.34-.78-.39-1.11-.05-.33-.02-.63,.09-.91,.08-.21,.18-.39,.29-.54,.11-.15,.24-.27,.38-.37,.14-.1,.29-.17,.45-.21,.16-.04,.32-.07,.5-.07-.12-.24-.22-.46-.29-.67-.07-.2-.12-.39-.14-.56-.03-.17-.03-.33-.02-.48,.01-.15,.05-.29,.1-.43,.13-.33,.29-.59,.49-.77,.2-.18,.43-.3,.67-.37,.25-.06,.51-.08,.79-.04s.57,.12,.86,.23l3.25,1.23Z"/><path class="cls-3" d="M22.15,63.12s.05,.03,.06,.06c.01,.02,.02,.06,.02,.1,0,.04-.01,.09-.03,.15-.02,.06-.05,.14-.09,.23-.04,.09-.08,.16-.12,.22-.03,.06-.07,.1-.1,.12-.03,.03-.06,.04-.09,.05-.03,0-.05,0-.08-.02l-7.39-3.45s-.05-.03-.07-.06c-.02-.02-.02-.06-.02-.1,0-.04,.01-.09,.03-.16,.02-.06,.05-.14,.09-.23,.04-.09,.08-.17,.12-.22s.07-.1,.1-.12c.03-.03,.06-.04,.09-.05,.03,0,.06,0,.09,.01l7.39,3.45Z"/><path class="cls-3" d="M25.16,57.19s.05,.03,.06,.06c.01,.02,.02,.05,.02,.09,0,.04-.01,.09-.03,.14s-.05,.12-.09,.2c-.04,.08-.08,.15-.12,.2-.04,.05-.07,.08-.1,.11-.03,.02-.06,.04-.08,.04-.03,0-.05,0-.08-.02l-.64-.34c.16,.44,.24,.83,.24,1.17,0,.34-.08,.65-.22,.93-.17,.32-.37,.57-.59,.73-.22,.16-.47,.27-.72,.31-.26,.04-.53,.02-.8-.05-.28-.07-.59-.2-.95-.39l-2.95-1.55s-.05-.03-.06-.06c-.01-.02-.02-.06-.02-.1,0-.05,.02-.1,.04-.16,.03-.06,.06-.13,.11-.22,.04-.09,.09-.16,.12-.21,.04-.06,.07-.1,.11-.12,.04-.03,.07-.04,.09-.04,.03,0,.06,0,.08,.02l2.83,1.49c.28,.15,.52,.25,.71,.3,.19,.05,.37,.06,.54,.04,.17-.02,.32-.08,.45-.17,.13-.09,.25-.23,.34-.4,.12-.22,.16-.49,.11-.79-.04-.3-.15-.66-.32-1.07l-3.4-1.79s-.05-.03-.06-.06c-.01-.02-.02-.06-.02-.1,0-.05,.02-.1,.04-.15,.02-.06,.06-.13,.11-.22,.05-.09,.09-.16,.12-.21,.04-.06,.07-.09,.1-.12,.03-.02,.06-.04,.09-.04,.03,0,.06,0,.09,.01l4.86,2.56Z"/><path class="cls-3" d="M28.71,51.42s.05,.04,.06,.06c.01,.03,.01,.06,0,.1,0,.04-.02,.09-.05,.15-.03,.06-.07,.13-.12,.21-.05,.09-.1,.15-.14,.21-.04,.05-.08,.09-.11,.11-.03,.02-.06,.04-.09,.04-.03,0-.06,0-.08-.02l-2.73-1.7c-.27-.17-.49-.28-.68-.34-.19-.06-.37-.09-.53-.08-.17,0-.32,.05-.46,.14-.14,.09-.26,.21-.37,.38-.13,.21-.19,.48-.17,.78,.02,.31,.1,.67,.25,1.09l3.26,2.03s.05,.04,.06,.06c.01,.03,.01,.06,0,.1,0,.04-.02,.09-.05,.15-.03,.06-.07,.13-.12,.22-.05,.08-.1,.15-.14,.2-.04,.05-.08,.09-.11,.11-.03,.02-.06,.04-.09,.04s-.05,0-.08-.03l-4.66-2.91s-.05-.04-.06-.06c-.01-.02-.02-.05-.01-.09,0-.04,.02-.09,.04-.14,.03-.05,.06-.12,.11-.2,.05-.08,.09-.14,.12-.18,.04-.05,.07-.08,.1-.1,.03-.02,.06-.03,.09-.03,.03,0,.05,0,.08,.03l.62,.38c-.13-.45-.18-.84-.15-1.19,.03-.35,.12-.65,.29-.92,.19-.31,.41-.54,.65-.69,.24-.15,.49-.23,.74-.25,.26-.02,.52,.01,.79,.1,.27,.09,.57,.24,.9,.45l2.84,1.77Z"/><path class="cls-3" d="M28.41,42.92c.12,.08,.19,.16,.22,.23,.03,.07,.02,.13-.01,.18l-.46,.64c.2-.03,.39-.01,.57,.04,.18,.06,.34,.14,.5,.26,.26,.19,.45,.39,.59,.62,.14,.23,.22,.47,.24,.72,.03,.25,0,.51-.08,.77-.08,.26-.21,.52-.4,.78-.13,.18-.28,.34-.45,.46s-.32,.21-.46,.25c.02,.1,.05,.2,.1,.29,.05,.09,.12,.18,.22,.25,.12,.08,.25,.1,.4,.05,.15-.05,.3-.16,.44-.34l.89-1.12c.17-.22,.34-.4,.53-.54,.19-.14,.38-.25,.58-.31,.2-.06,.4-.08,.6-.05,.2,.03,.4,.12,.59,.26,.2,.15,.37,.33,.49,.55,.12,.22,.19,.47,.2,.75,.01,.28-.04,.58-.16,.91-.12,.33-.31,.68-.58,1.06-.26,.36-.51,.64-.76,.85-.25,.21-.48,.35-.7,.44s-.43,.11-.63,.08c-.2-.04-.38-.11-.55-.24-.11-.08-.2-.17-.29-.27-.08-.1-.15-.21-.2-.33-.05-.12-.09-.25-.12-.39-.03-.14-.04-.3-.05-.46-.2,.1-.39,.15-.57,.13-.18-.01-.34-.07-.49-.18-.2-.15-.35-.32-.45-.52s-.16-.4-.2-.61c-.2,.01-.39,0-.59-.06-.2-.05-.4-.16-.62-.32-.25-.18-.45-.39-.59-.62-.14-.23-.22-.47-.25-.72-.03-.25,0-.51,.08-.78,.08-.27,.21-.52,.39-.77,.1-.13,.2-.25,.3-.36,.1-.11,.2-.2,.3-.28l.98-1.34c.04-.06,.1-.08,.17-.07,.08,.01,.17,.06,.28,.14Zm.24,2.12c-.3-.22-.6-.31-.89-.27-.29,.04-.55,.22-.77,.52-.12,.16-.19,.31-.22,.47-.03,.16-.03,.3,0,.45,.04,.14,.1,.28,.19,.4,.09,.12,.2,.24,.34,.33,.29,.21,.58,.3,.87,.25,.29-.04,.54-.22,.76-.52,.12-.16,.2-.32,.23-.47,.04-.16,.04-.3,0-.45-.04-.14-.1-.28-.19-.4-.09-.12-.2-.23-.33-.33Zm3.82,2.16c-.19-.14-.4-.17-.61-.09-.22,.08-.43,.25-.63,.51l-.88,1.12c0,.17,.02,.31,.04,.43,.02,.12,.06,.23,.1,.31,.04,.09,.08,.16,.14,.23,.05,.06,.12,.12,.19,.17,.21,.16,.46,.17,.72,.03,.27-.14,.54-.4,.83-.79,.18-.25,.3-.47,.38-.67s.11-.38,.1-.54c0-.16-.04-.3-.11-.42-.07-.12-.16-.22-.27-.3Z"/><path class="cls-3" d="M34.33,39.45c.12,.1,.18,.21,.18,.31,0,.1-.03,.2-.1,.27l-2.34,2.76c.23,.2,.46,.35,.69,.46,.23,.11,.45,.17,.68,.17,.23,0,.45-.05,.67-.17,.22-.11,.44-.3,.65-.55,.17-.2,.3-.39,.4-.57,.1-.18,.18-.35,.23-.5,.06-.15,.1-.27,.13-.37,.03-.1,.06-.17,.09-.21,.02-.02,.04-.04,.07-.04,.03,0,.05,0,.08,0,.03,0,.07,.03,.11,.06,.04,.03,.09,.07,.15,.11,.04,.03,.07,.07,.1,.09,.03,.03,.05,.05,.07,.08,.02,.02,.03,.05,.04,.08,0,.03,.02,.06,.02,.09,0,.03-.01,.11-.04,.22-.03,.12-.09,.26-.16,.42-.08,.17-.17,.35-.29,.55-.12,.2-.26,.4-.43,.6-.29,.34-.6,.61-.91,.78-.32,.18-.64,.28-.98,.29-.34,.02-.69-.05-1.05-.2-.36-.15-.73-.39-1.11-.71-.36-.3-.64-.62-.85-.96s-.34-.68-.39-1.02c-.05-.34-.03-.69,.08-1.03,.1-.34,.28-.66,.54-.97,.28-.33,.57-.57,.87-.71,.3-.14,.6-.21,.91-.21,.3,0,.61,.07,.91,.2,.3,.13,.59,.32,.86,.55l.14,.12Zm-.88,.58c-.4-.35-.79-.53-1.18-.53-.39,0-.74,.18-1.06,.55-.16,.19-.27,.39-.32,.59-.05,.2-.06,.4-.02,.6,.04,.2,.11,.39,.22,.57,.11,.19,.25,.35,.42,.5l1.94-2.29Z"/><path class="cls-3" d="M41.26,36.74s.04,.05,.04,.08,0,.06-.02,.1c-.02,.04-.04,.08-.08,.13-.04,.05-.1,.11-.17,.18-.07,.07-.13,.13-.19,.17-.05,.04-.1,.07-.13,.08-.04,.01-.07,.02-.1,.01-.03,0-.05-.02-.08-.04l-2.25-2.3c-.22-.22-.41-.39-.58-.49-.17-.1-.33-.17-.5-.2-.16-.03-.32-.02-.48,.03-.16,.05-.31,.15-.45,.28-.18,.18-.3,.42-.35,.72-.05,.3-.06,.68-.02,1.12l2.68,2.75s.04,.05,.04,.08,0,.06-.02,.1c-.02,.04-.04,.08-.08,.13-.04,.05-.1,.11-.17,.18-.07,.07-.13,.12-.18,.16-.05,.04-.1,.07-.14,.08-.04,.02-.07,.02-.1,.01-.03,0-.05-.02-.07-.04l-3.84-3.93s-.04-.05-.04-.07,0-.06,0-.09c.01-.04,.04-.08,.07-.12,.04-.04,.09-.1,.16-.16,.06-.06,.12-.11,.17-.15,.05-.04,.09-.06,.12-.07,.04,0,.07-.01,.09,0,.03,0,.05,.02,.07,.04l.51,.52c-.02-.46,.02-.86,.13-1.19,.11-.33,.27-.6,.5-.82,.26-.26,.53-.43,.79-.51,.27-.09,.53-.11,.78-.07,.26,.04,.5,.14,.75,.29,.24,.15,.5,.37,.77,.65l2.34,2.4Z"/><path class="cls-3" d="M45.13,29.57c.1,.12,.15,.22,.16,.29,.01,.07-.01,.13-.07,.17l-1.99,1.6c-.06,.05-.12,.06-.19,.03-.07-.03-.15-.1-.25-.22-.1-.12-.15-.22-.16-.29,0-.07,.02-.13,.07-.17l1.99-1.6s.05-.03,.08-.04c.03,0,.06,0,.1,.01,.04,.02,.08,.04,.12,.08s.09,.08,.13,.14Z"/><path class="cls-3" d="M53.96,26.52c.04,.07,.08,.13,.1,.18,.02,.05,.04,.1,.04,.14,0,.04,0,.08,0,.11-.01,.03-.03,.05-.06,.08l-2.92,1.92c-.08,.05-.17,.07-.27,.07-.1,0-.2-.08-.29-.21l-4.02-6.11s-.03-.06-.03-.08,.01-.06,.04-.1c.03-.03,.07-.07,.12-.12,.05-.05,.12-.1,.2-.15,.09-.06,.16-.1,.22-.13,.06-.03,.11-.05,.15-.06,.04,0,.08,0,.1,0,.03,.01,.05,.03,.07,.06l3.75,5.71,2.37-1.56s.06-.03,.09-.03c.03,0,.06,.01,.1,.03,.04,.02,.07,.05,.11,.09,.04,.04,.08,.1,.12,.17Z"/><path class="cls-3" d="M57.71,21.16c.08,.14,.1,.25,.07,.35-.04,.1-.1,.17-.18,.23l-3.11,1.84c.16,.26,.32,.48,.5,.66s.37,.31,.58,.39c.21,.08,.44,.1,.69,.06,.24-.04,.51-.14,.79-.31,.23-.13,.42-.27,.57-.41,.15-.14,.28-.27,.38-.39,.1-.12,.18-.22,.24-.31,.06-.09,.11-.14,.16-.17,.02-.01,.05-.02,.08-.02,.03,0,.05,.01,.08,.03,.02,.02,.05,.05,.08,.09,.03,.04,.06,.09,.1,.16,.03,.04,.05,.09,.07,.12,.02,.04,.03,.07,.04,.1,0,.03,.02,.06,.02,.09s0,.06-.01,.09c0,.03-.05,.1-.12,.2s-.17,.21-.29,.35c-.13,.13-.28,.27-.46,.42-.18,.15-.38,.29-.6,.42-.39,.23-.76,.38-1.12,.44s-.7,.05-1.02-.05c-.33-.1-.63-.27-.93-.54-.29-.26-.56-.61-.82-1.03-.24-.41-.4-.8-.49-1.19-.09-.39-.1-.75-.03-1.09,.06-.34,.2-.66,.41-.94s.49-.53,.83-.74c.37-.22,.72-.35,1.05-.38s.64,0,.93,.1c.29,.1,.55,.27,.79,.49,.24,.22,.45,.49,.63,.8l.09,.16Zm-1.02,.26c-.26-.46-.57-.76-.94-.89-.37-.13-.76-.07-1.18,.17-.22,.13-.38,.28-.5,.46-.11,.17-.19,.36-.22,.56-.03,.2-.02,.4,.02,.62,.04,.21,.12,.42,.23,.61l2.58-1.52Z"/><path class="cls-3" d="M64.52,20.99c.05,.04,.09,.07,.11,.11,.02,.03,.01,.07,0,.11-.02,.04-.07,.08-.14,.12-.07,.04-.16,.09-.27,.15-.11,.05-.2,.09-.26,.12s-.12,.04-.17,.05c-.04,0-.08,0-.11,0-.03,0-.06-.02-.08-.04l-2.15-1.37-.21,2.54s0,.06-.02,.09c-.01,.03-.03,.06-.06,.09-.03,.03-.08,.07-.14,.1s-.14,.08-.24,.13-.19,.09-.27,.12-.13,.03-.17,.03c-.04,0-.07-.03-.09-.06-.02-.04-.02-.09-.01-.16l.34-3.16-2.6-1.59c-.05-.04-.09-.07-.11-.11-.02-.03-.02-.07,0-.11s.07-.08,.14-.12c.07-.04,.16-.09,.28-.15,.11-.05,.19-.09,.26-.12,.07-.03,.12-.04,.16-.05,.04,0,.08,0,.1,0s.05,.02,.08,.04l2.03,1.27,.23-2.4s0-.06,.02-.08c0-.03,.03-.06,.05-.08,.02-.03,.06-.06,.12-.09s.13-.07,.23-.12c.11-.05,.19-.09,.26-.12,.07-.03,.13-.04,.17-.04,.04,0,.07,.03,.08,.06,.01,.04,.02,.09,.01,.16l-.3,3,2.72,1.67Z"/><path class="cls-3" d="M63.95,13.4c.09,.21,.12,.38,.07,.5-.05,.11-.18,.22-.4,.32-.22,.09-.38,.12-.5,.08-.11-.04-.22-.17-.31-.38-.09-.22-.12-.38-.07-.5,.05-.12,.18-.22,.4-.32,.22-.09,.38-.12,.5-.08,.11,.04,.22,.17,.31,.38Zm2.84,6.78s.02,.06,0,.08c0,.03-.02,.06-.05,.09-.03,.03-.07,.06-.12,.09-.06,.03-.13,.07-.22,.11-.09,.04-.17,.07-.23,.09-.06,.02-.12,.03-.16,.03-.04,0-.08,0-.1-.02-.02-.01-.04-.04-.05-.07l-2.2-5.03s-.01-.05-.01-.08c0-.03,.02-.06,.05-.09,.03-.03,.07-.06,.13-.09,.06-.04,.13-.07,.22-.11,.09-.04,.17-.07,.23-.09,.06-.02,.11-.03,.15-.03,.04,0,.07,0,.1,.02,.03,.02,.04,.04,.05,.06l2.2,5.03Z"/><path class="cls-3" d="M72.81,17.83s.01,.06,0,.09c0,.03-.03,.06-.06,.09-.03,.03-.08,.06-.14,.09-.06,.03-.14,.07-.24,.1-.1,.04-.19,.07-.26,.09-.07,.02-.13,.03-.18,.04-.05,0-.09,0-.13-.02-.04-.01-.08-.03-.11-.06l-3.25-2.02,1.08,2.85s.01,.06,0,.08c0,.03-.02,.05-.05,.08-.03,.03-.07,.06-.13,.09s-.13,.06-.23,.1c-.09,.03-.17,.06-.23,.08-.06,.02-.12,.02-.16,.02-.04,0-.07-.01-.1-.03s-.04-.04-.05-.07l-2.9-7.62s-.01-.06-.01-.09c0-.03,.02-.06,.05-.08,.03-.03,.07-.06,.13-.09,.06-.03,.13-.06,.22-.1,.1-.04,.17-.06,.24-.08,.06-.01,.12-.02,.16-.02,.04,0,.07,.01,.1,.03,.02,.02,.04,.04,.05,.07l1.77,4.64,1.13-2.87s.04-.09,.06-.13c.02-.04,.06-.07,.1-.11,.04-.04,.09-.07,.16-.1s.14-.06,.23-.1c.1-.04,.18-.06,.24-.08,.07-.02,.12-.03,.17-.03,.04,0,.08,0,.1,.02,.03,.01,.04,.04,.06,.07,.02,.05,.02,.1,.01,.15,0,.06-.03,.12-.06,.21l-1.15,2.57,3.12,1.92c.07,.05,.13,.08,.16,.12,.04,.03,.06,.06,.07,.1Z"/><path class="cls-3" d="M78.17,16.28s0,.09-.02,.12c-.02,.03-.06,.06-.11,.09-.05,.03-.13,.06-.23,.09-.1,.03-.18,.05-.25,.06-.06,0-.11,0-.15-.01-.04-.02-.06-.05-.07-.09l-.16-.53c-.16,.31-.36,.58-.6,.8s-.52,.38-.84,.47c-.28,.08-.54,.12-.78,.12-.25,0-.47-.05-.67-.14-.2-.09-.37-.22-.52-.39-.15-.17-.26-.39-.33-.64-.09-.3-.1-.57-.05-.83s.18-.49,.36-.7c.18-.21,.43-.4,.73-.57,.31-.17,.66-.31,1.07-.44l.73-.22-.12-.41c-.06-.2-.13-.38-.22-.52-.09-.14-.2-.25-.32-.33s-.27-.12-.44-.12c-.17,0-.36,.02-.59,.09-.24,.07-.44,.16-.62,.28-.17,.11-.32,.22-.44,.34-.12,.11-.22,.21-.3,.29-.08,.08-.14,.13-.19,.15-.03,0-.06,0-.09,0-.03,0-.06-.03-.08-.05-.03-.03-.05-.06-.07-.11-.02-.05-.04-.1-.06-.16-.03-.1-.04-.18-.05-.24,0-.06,.01-.12,.05-.19,.04-.07,.11-.15,.22-.26,.11-.11,.24-.21,.39-.32,.15-.11,.32-.21,.51-.3,.19-.1,.38-.17,.59-.23,.38-.11,.71-.17,1-.16,.29,0,.54,.07,.76,.19,.21,.12,.39,.29,.54,.51,.15,.22,.27,.5,.37,.83l1.06,3.55Zm-1.67-2.12l-.83,.25c-.27,.08-.49,.17-.67,.27-.18,.1-.32,.22-.43,.34s-.17,.26-.19,.4c-.02,.14-.01,.29,.04,.45,.08,.27,.23,.46,.46,.57,.22,.11,.49,.12,.8,.03,.25-.08,.47-.21,.65-.4,.18-.19,.35-.46,.51-.79l-.33-1.12Z"/><path class="cls-3" d="M81.04,15.61s0,.06,0,.09c-.01,.03-.03,.05-.06,.07-.03,.02-.08,.05-.14,.07-.06,.02-.14,.05-.24,.07-.09,.02-.18,.04-.24,.05-.07,0-.12,0-.16,0-.04,0-.07-.02-.09-.04-.02-.02-.03-.04-.04-.08l-1.93-7.92s0-.06,0-.09c0-.03,.03-.05,.06-.08,.03-.03,.08-.05,.14-.07,.06-.02,.14-.05,.23-.07,.1-.02,.18-.04,.25-.05,.06,0,.12,0,.16,0,.04,0,.07,.02,.09,.04,.02,.02,.04,.04,.04,.08l1.93,7.92Z"/><path class="cls-3" d="M82.67,7.78c.04,.23,.03,.4-.04,.5-.07,.1-.22,.17-.46,.22-.23,.04-.4,.03-.5-.03s-.17-.21-.22-.44c-.04-.23-.03-.4,.04-.5,.07-.1,.23-.17,.46-.22,.23-.04,.4-.03,.5,.03,.1,.07,.17,.21,.22,.44Zm1.27,7.24s0,.06,0,.08c-.01,.03-.03,.05-.07,.07-.03,.02-.08,.04-.14,.06-.06,.02-.14,.04-.24,.06-.1,.02-.18,.03-.24,.04s-.12,0-.16,0c-.04,0-.07-.02-.09-.04-.02-.02-.03-.04-.04-.08l-1.03-5.4s0-.06,0-.08c0-.03,.03-.05,.07-.08,.04-.02,.08-.04,.15-.06,.06-.02,.14-.04,.24-.06,.1-.02,.18-.03,.25-.03,.06,0,.12,0,.16,0s.07,.02,.09,.04c.02,.02,.03,.05,.04,.07l1.03,5.4Z"/><path class="cls-3" d="M89.1,12.69c.04,.28,.02,.53-.05,.77-.07,.23-.19,.44-.36,.61-.17,.18-.38,.32-.63,.43-.25,.11-.53,.19-.85,.24-.19,.03-.38,.04-.56,.03s-.34-.02-.49-.05c-.15-.03-.27-.06-.37-.09-.1-.04-.18-.07-.23-.11-.05-.03-.09-.09-.12-.16-.03-.07-.05-.17-.07-.29-.01-.08-.02-.14-.02-.19,0-.05,0-.1,.01-.13,0-.03,.02-.06,.04-.08,.02-.02,.04-.03,.07-.03,.04,0,.11,.01,.21,.05,.09,.04,.21,.09,.34,.13,.14,.05,.29,.08,.48,.11,.18,.03,.38,.03,.61,0,.17-.02,.32-.06,.45-.12,.13-.05,.24-.12,.33-.21,.09-.08,.15-.19,.19-.3,.04-.12,.05-.25,.03-.4-.02-.15-.08-.28-.17-.37-.09-.09-.21-.17-.35-.23-.14-.06-.29-.11-.46-.15-.17-.04-.35-.08-.53-.13s-.36-.1-.53-.16c-.17-.06-.34-.15-.48-.26-.15-.11-.27-.24-.37-.4-.1-.16-.17-.36-.21-.61-.03-.21-.02-.42,.04-.63,.05-.21,.16-.4,.3-.57,.14-.17,.33-.32,.57-.44s.52-.21,.85-.26c.15-.02,.29-.03,.44-.02,.15,0,.28,.01,.41,.04,.12,.02,.23,.04,.32,.08,.09,.03,.16,.06,.2,.09,.05,.03,.08,.05,.1,.07s.03,.05,.04,.08c0,.03,.02,.07,.03,.11,.01,.04,.02,.1,.03,.16,0,.07,.01,.13,.02,.18,0,.05,0,.09-.01,.13,0,.03-.02,.06-.04,.08-.02,.02-.04,.03-.06,.03-.04,0-.09,0-.17-.04-.08-.03-.17-.07-.29-.1-.12-.04-.25-.06-.4-.09s-.33-.02-.51,0c-.17,.02-.32,.06-.44,.12-.12,.06-.22,.13-.29,.21-.07,.08-.12,.17-.15,.28-.03,.1-.04,.21-.02,.32,.02,.16,.08,.28,.18,.38,.1,.1,.21,.18,.35,.24s.3,.11,.47,.16c.17,.04,.35,.08,.53,.13,.18,.04,.36,.1,.54,.16,.18,.06,.34,.14,.49,.25,.15,.1,.27,.23,.37,.39,.1,.16,.17,.35,.2,.59Z"/><path class="cls-3" d="M94.79,12.8c0,.07,0,.13,0,.18,0,.05,0,.09,0,.13,0,.04-.02,.07-.03,.09-.01,.03-.04,.07-.09,.12-.05,.06-.13,.12-.24,.21-.12,.09-.25,.16-.39,.24-.15,.07-.31,.13-.48,.19-.18,.05-.36,.09-.55,.1-.39,.04-.75,0-1.06-.1-.32-.1-.59-.27-.81-.5-.23-.23-.41-.52-.55-.88-.14-.35-.23-.77-.27-1.24-.05-.54-.02-1.01,.08-1.41,.1-.4,.25-.73,.46-1s.46-.48,.76-.62c.3-.15,.63-.24,.99-.27,.17-.02,.34-.01,.51,0s.32,.05,.46,.09c.14,.04,.27,.09,.38,.15,.11,.06,.2,.11,.25,.16,.05,.04,.09,.08,.11,.11,.02,.03,.04,.06,.05,.1,.02,.04,.03,.08,.04,.13,0,.05,.02,.11,.02,.18,.01,.16,0,.27-.03,.34s-.07,.1-.12,.11c-.06,0-.13-.02-.22-.08s-.19-.12-.32-.2c-.13-.07-.28-.13-.46-.18s-.38-.07-.62-.05c-.48,.04-.84,.26-1.06,.65-.22,.39-.31,.94-.24,1.65,.03,.35,.09,.66,.18,.92,.09,.26,.21,.47,.35,.64,.15,.17,.32,.29,.51,.36,.2,.07,.42,.1,.66,.07,.23-.02,.43-.08,.6-.16,.17-.09,.31-.18,.43-.28,.12-.1,.22-.19,.3-.27,.08-.08,.15-.12,.19-.12,.03,0,.05,0,.07,.02,.02,.01,.04,.04,.06,.08s.03,.09,.04,.14c.01,.06,.02,.13,.03,.21Z"/><path class="cls-3" d="M101.22,13.5s0,.06-.02,.08c-.02,.02-.04,.04-.08,.06-.04,.02-.09,.03-.15,.04s-.15,.01-.24,.02c-.1,0-.19,0-.25,0-.07,0-.12-.02-.15-.04-.04-.02-.06-.04-.08-.06-.02-.02-.02-.05-.03-.08l-.04-3.22c0-.31-.03-.57-.08-.76s-.12-.36-.22-.49c-.1-.14-.22-.24-.37-.31s-.32-.11-.52-.1c-.25,0-.5,.1-.75,.28-.25,.18-.51,.45-.78,.8l.05,3.84s0,.06-.02,.08c-.02,.02-.04,.04-.08,.06-.04,.02-.09,.03-.15,.04-.06,0-.15,.01-.25,.02-.1,0-.18,0-.24,0-.07,0-.12-.02-.16-.04-.04-.02-.07-.03-.08-.06-.01-.02-.02-.05-.02-.08l-.1-8.15s0-.06,.02-.09c.01-.02,.04-.05,.08-.06,.04-.02,.09-.03,.16-.04,.06,0,.15-.01,.24-.01,.1,0,.19,0,.25,0,.06,0,.12,.02,.15,.04s.06,.04,.08,.06c.02,.02,.02,.05,.03,.09l.04,3.29c.29-.31,.57-.54,.86-.69,.29-.15,.59-.23,.88-.24,.37,0,.67,.05,.93,.17,.25,.12,.46,.28,.61,.49,.16,.21,.27,.45,.34,.73,.07,.28,.11,.62,.11,1.01l.04,3.34Z"/><path class="cls-3" d="M108.16,10.87c-.01,.16-.06,.27-.14,.33-.08,.06-.18,.09-.28,.08l-3.61-.23c-.02,.31,0,.58,.04,.83,.05,.25,.14,.46,.27,.65,.13,.18,.31,.33,.53,.44s.5,.17,.83,.19c.26,.02,.49,0,.7-.02,.21-.03,.39-.07,.54-.11,.15-.04,.28-.08,.38-.12,.1-.04,.17-.05,.22-.05,.03,0,.05,.01,.08,.03,.02,.02,.04,.04,.05,.07,.01,.03,.02,.07,.02,.12,0,.05,0,.11,0,.19,0,.05,0,.1-.02,.14,0,.04-.01,.07-.02,.1,0,.03-.02,.06-.04,.08s-.04,.05-.06,.07c-.02,.02-.09,.05-.21,.1s-.26,.08-.44,.12c-.18,.04-.38,.07-.61,.09-.23,.02-.48,.03-.74,.01-.45-.03-.84-.12-1.17-.26s-.6-.35-.82-.61c-.22-.26-.37-.58-.46-.96-.09-.38-.12-.82-.09-1.31,.03-.47,.12-.89,.26-1.26,.15-.37,.34-.67,.59-.92,.25-.25,.54-.43,.87-.55,.33-.12,.7-.17,1.1-.14,.43,.03,.79,.12,1.09,.28,.29,.16,.53,.36,.71,.6,.18,.25,.31,.53,.38,.85,.07,.32,.1,.66,.07,1.02v.18Zm-1-.36c.05-.53-.05-.95-.27-1.27-.23-.32-.58-.49-1.07-.52-.25-.02-.47,.02-.67,.1-.19,.08-.36,.2-.5,.34s-.25,.32-.33,.52-.13,.41-.16,.63l2.99,.19Z"/><path class="cls-3" d="M118.02,15.32s-.02,.06-.03,.08c-.02,.02-.05,.04-.09,.05-.04,0-.1,.01-.17,0-.07,0-.17-.02-.29-.04-.1-.02-.19-.04-.25-.06-.07-.02-.12-.04-.15-.07-.04-.02-.06-.05-.08-.09-.02-.03-.03-.08-.04-.13l-.41-1.96c-.05-.22-.11-.43-.17-.62-.06-.19-.14-.36-.25-.51-.1-.15-.23-.27-.39-.37-.16-.1-.35-.17-.59-.21l-.69-.11-.55,3.32s-.02,.06-.04,.08c-.02,.02-.05,.04-.09,.04-.04,0-.09,.01-.16,.01-.07,0-.15,0-.25-.03s-.18-.04-.25-.06c-.07-.02-.12-.04-.15-.06-.04-.02-.06-.04-.08-.07-.01-.03-.02-.06-.01-.09l1.2-7.21c.03-.16,.09-.26,.18-.31,.09-.05,.19-.07,.28-.05l1.66,.27c.2,.03,.36,.07,.49,.1,.13,.03,.24,.06,.35,.09,.29,.1,.54,.23,.76,.38,.21,.15,.38,.32,.51,.52,.13,.2,.21,.42,.25,.65,.04,.23,.04,.49,0,.76-.04,.26-.12,.49-.22,.68-.1,.2-.24,.36-.4,.5-.16,.14-.34,.25-.54,.33-.2,.09-.43,.15-.67,.19,.12,.08,.22,.17,.31,.27s.17,.22,.24,.36c.07,.13,.13,.29,.19,.46s.11,.36,.15,.57l.41,1.83c.03,.15,.05,.26,.06,.32,0,.06,0,.11,0,.14Zm-.65-5.73c.05-.3,.02-.57-.08-.81-.1-.23-.31-.42-.61-.57-.1-.04-.21-.08-.33-.12-.12-.03-.29-.07-.49-.1l-.87-.14-.43,2.62,1.01,.17c.27,.05,.51,.05,.72,.02,.21-.03,.39-.1,.54-.2,.15-.1,.27-.22,.36-.37,.09-.15,.15-.32,.18-.51Z"/><path class="cls-3" d="M124.92,14.06c-.04,.15-.11,.25-.2,.29-.09,.04-.19,.05-.29,.03l-3.49-.94c-.08,.29-.12,.57-.13,.82,0,.25,.04,.48,.13,.69,.09,.21,.24,.38,.43,.54,.2,.15,.46,.27,.77,.35,.25,.07,.48,.11,.69,.12,.21,.01,.39,.01,.55,0,.16-.01,.29-.03,.39-.04s.18-.02,.23,0c.03,0,.05,.02,.07,.04,.02,.02,.03,.04,.03,.08,0,.03,0,.07,0,.12,0,.05-.02,.11-.04,.18-.01,.05-.03,.09-.04,.13-.01,.04-.03,.07-.04,.1-.01,.03-.03,.05-.05,.07s-.04,.04-.07,.05c-.03,.02-.1,.03-.22,.05-.12,.02-.27,.03-.45,.03-.18,0-.39,0-.62-.03-.23-.02-.47-.07-.73-.14-.44-.12-.8-.28-1.1-.49-.29-.21-.52-.47-.68-.77-.16-.3-.25-.65-.26-1.04-.02-.39,.04-.83,.17-1.31,.12-.46,.29-.85,.51-1.18,.22-.33,.47-.59,.76-.79,.29-.19,.61-.31,.96-.37,.35-.05,.72-.02,1.11,.08,.42,.11,.75,.28,1.01,.49s.45,.46,.58,.73c.13,.28,.19,.58,.2,.91,0,.33-.04,.66-.13,1.01l-.05,.18Zm-.9-.55c.15-.51,.14-.94-.02-1.29-.16-.35-.48-.6-.95-.72-.24-.07-.46-.08-.67-.04-.21,.04-.39,.12-.55,.24s-.3,.26-.43,.44-.21,.38-.28,.59l2.89,.78Z"/><path class="cls-3" d="M129.45,17.07c-.09,.27-.21,.49-.38,.67-.17,.18-.36,.31-.59,.39s-.48,.12-.76,.11c-.28,0-.56-.06-.87-.16-.19-.06-.36-.13-.52-.21-.16-.08-.3-.17-.42-.26-.12-.09-.22-.17-.29-.25s-.13-.14-.16-.2c-.03-.05-.04-.12-.04-.19,0-.08,.02-.17,.06-.29,.02-.07,.05-.13,.07-.18,.02-.05,.05-.09,.07-.11,.02-.03,.04-.04,.07-.05,.03,0,.05,0,.08,0,.04,.01,.1,.06,.16,.14,.07,.08,.15,.17,.25,.27s.23,.21,.38,.31c.15,.11,.33,.2,.55,.27,.16,.05,.32,.08,.46,.09,.14,0,.27,0,.39-.04,.12-.04,.22-.1,.31-.19,.09-.09,.15-.2,.2-.35,.05-.15,.05-.28,0-.41-.04-.13-.11-.25-.21-.37-.1-.12-.22-.23-.35-.34-.13-.11-.27-.22-.42-.34s-.28-.25-.41-.38-.24-.28-.32-.44c-.08-.16-.14-.34-.16-.53-.02-.19,0-.4,.08-.63,.07-.21,.17-.39,.31-.55,.14-.16,.31-.29,.52-.38,.21-.09,.44-.14,.71-.15,.27,0,.56,.04,.87,.14,.14,.04,.28,.1,.41,.17,.13,.07,.25,.14,.35,.21,.1,.07,.18,.14,.25,.21,.07,.07,.12,.12,.15,.17,.03,.04,.05,.08,.06,.11,0,.03,0,.06,0,.09,0,.03-.01,.07-.02,.11,0,.04-.02,.1-.04,.16-.02,.07-.04,.12-.06,.17-.02,.05-.04,.08-.07,.11-.02,.03-.05,.04-.07,.05-.02,0-.05,0-.07,0-.04-.01-.08-.05-.13-.11-.05-.06-.12-.14-.21-.22s-.2-.17-.33-.26c-.13-.09-.28-.16-.46-.22-.16-.05-.31-.08-.45-.08s-.25,.02-.36,.06c-.1,.04-.19,.1-.26,.18-.07,.08-.12,.17-.16,.28-.05,.15-.05,.29,0,.42,.04,.13,.12,.25,.21,.37,.1,.12,.22,.23,.36,.35s.28,.23,.42,.35c.14,.12,.28,.25,.42,.38,.13,.13,.24,.28,.33,.43s.14,.33,.16,.51c.02,.19,0,.39-.08,.62Z"/><path class="cls-3" d="M134.39,19.04c-.11,.26-.25,.47-.43,.63-.18,.17-.39,.28-.62,.35-.23,.07-.49,.09-.76,.06-.27-.03-.56-.1-.85-.22-.18-.07-.35-.16-.5-.25-.15-.1-.29-.19-.4-.29s-.2-.19-.28-.27-.12-.15-.15-.21c-.03-.06-.03-.12-.03-.2,0-.08,.04-.17,.09-.29,.03-.07,.06-.13,.08-.18s.05-.08,.08-.11,.05-.04,.08-.05c.03,0,.05,0,.08,0,.04,.02,.09,.07,.15,.15,.06,.08,.14,.18,.23,.29,.09,.11,.21,.22,.35,.34,.14,.12,.32,.22,.53,.31,.16,.06,.31,.11,.45,.12,.14,.02,.27,.01,.39-.01s.23-.08,.32-.16c.09-.08,.17-.19,.22-.33,.06-.14,.07-.28,.04-.41s-.09-.25-.18-.38c-.09-.12-.2-.25-.33-.37-.13-.12-.26-.24-.39-.37-.13-.13-.26-.27-.38-.41-.12-.14-.21-.3-.29-.46-.07-.17-.11-.35-.12-.54,0-.19,.04-.4,.13-.63,.08-.2,.2-.38,.35-.53,.15-.15,.33-.26,.54-.34,.21-.08,.45-.11,.71-.09s.55,.08,.86,.21c.13,.06,.27,.12,.39,.2,.13,.08,.24,.16,.33,.23,.1,.08,.17,.15,.24,.23,.06,.07,.11,.13,.13,.17,.03,.05,.04,.08,.05,.11,0,.03,0,.06,0,.09,0,.03-.01,.07-.03,.11-.01,.04-.03,.1-.05,.16-.03,.06-.05,.12-.08,.16-.03,.05-.05,.08-.08,.1-.03,.03-.05,.04-.07,.05s-.05,0-.07,0c-.03-.01-.07-.05-.12-.12-.05-.07-.11-.15-.19-.23-.08-.09-.18-.18-.3-.28-.12-.1-.27-.18-.45-.25-.16-.07-.3-.11-.44-.12-.13-.01-.25,0-.36,.03-.1,.03-.19,.09-.27,.16s-.14,.16-.18,.27c-.06,.15-.07,.29-.04,.42s.1,.26,.19,.38c.09,.12,.2,.25,.33,.37,.13,.12,.26,.25,.4,.38s.26,.27,.39,.41c.12,.14,.22,.3,.3,.46s.12,.34,.12,.53-.03,.39-.12,.61Z"/><path class="cls-3" d="M141.24,20.84c-.2,.4-.44,.74-.71,1.03-.27,.29-.58,.5-.91,.64-.33,.14-.69,.2-1.07,.18-.38-.02-.78-.13-1.2-.34-.41-.2-.73-.44-.97-.71-.24-.27-.4-.57-.49-.9-.09-.33-.1-.68-.03-1.06,.07-.38,.2-.77,.41-1.19,.2-.4,.43-.74,.71-1.03,.27-.29,.57-.5,.9-.64,.33-.14,.69-.2,1.07-.18s.78,.14,1.2,.34c.4,.2,.73,.44,.97,.71,.24,.27,.4,.57,.49,.9,.09,.33,.1,.68,.04,1.06-.06,.38-.2,.77-.4,1.18Zm-.96-.4c.13-.27,.23-.53,.3-.79s.09-.51,.06-.74c-.03-.24-.11-.45-.25-.65-.14-.2-.36-.37-.65-.52-.27-.13-.52-.2-.76-.2-.24,0-.46,.05-.68,.17-.21,.11-.41,.27-.58,.48-.18,.21-.34,.45-.48,.73-.13,.27-.23,.54-.3,.8s-.09,.51-.06,.74c.03,.23,.11,.45,.26,.65,.14,.2,.36,.37,.65,.52,.26,.13,.52,.2,.76,.2,.24,0,.47-.05,.68-.16,.21-.11,.4-.27,.58-.47,.18-.21,.33-.45,.48-.74Z"/><path class="cls-3" d="M145.55,26.55s-.04,.05-.06,.06c-.02,.01-.05,.02-.09,.01-.04,0-.09-.02-.14-.04s-.12-.06-.19-.1c-.08-.05-.14-.09-.19-.13-.05-.04-.08-.07-.1-.1s-.03-.06-.03-.09c0-.03,0-.05,.03-.08l.37-.62c-.45,.14-.84,.2-1.18,.18-.34-.02-.65-.11-.92-.27-.32-.19-.55-.4-.7-.63-.15-.23-.24-.48-.27-.74-.03-.26,0-.53,.09-.8s.23-.58,.43-.93l1.7-2.87s.04-.05,.06-.06c.02-.01,.06-.01,.1,0s.1,.02,.16,.05c.06,.03,.13,.07,.21,.12,.08,.05,.15,.09,.21,.13,.05,.04,.09,.08,.12,.11,.02,.04,.04,.07,.04,.09,0,.03,0,.06-.02,.08l-1.63,2.75c-.16,.28-.27,.51-.33,.7-.06,.19-.08,.37-.07,.54,.01,.17,.06,.32,.15,.46,.09,.14,.22,.26,.38,.36,.22,.13,.48,.18,.79,.15,.31-.03,.67-.12,1.09-.27l1.95-3.3s.04-.05,.06-.06c.02-.01,.06-.01,.1,0s.1,.02,.15,.05c.06,.03,.13,.07,.22,.12,.08,.05,.15,.09,.21,.13,.05,.04,.09,.08,.11,.11,.02,.03,.03,.07,.04,.09,0,.03,0,.06-.02,.09l-2.8,4.73Z"/><path class="cls-3" d="M152.84,25.27c-.05,.07-.09,.13-.13,.18-.04,.05-.07,.08-.1,.11-.03,.02-.06,.03-.08,.04-.03,0-.05,0-.08-.02-.03-.02-.05-.05-.08-.09-.03-.04-.06-.09-.1-.14-.04-.05-.08-.1-.13-.15-.05-.06-.11-.11-.18-.16-.08-.06-.18-.1-.28-.12-.1-.02-.23-.03-.37,0-.14,.02-.3,.05-.49,.11-.18,.06-.4,.14-.64,.24l-2.06,2.97s-.04,.04-.07,.05c-.03,0-.06,0-.1,0s-.09-.03-.15-.06c-.06-.03-.13-.08-.21-.13-.08-.06-.15-.11-.2-.15-.05-.04-.08-.08-.11-.12s-.03-.07-.03-.09c0-.03,.01-.05,.03-.08l3.13-4.51s.04-.05,.06-.06c.02-.01,.05-.01,.1,0,.04,0,.09,.02,.14,.05,.05,.03,.11,.07,.19,.12,.07,.05,.13,.1,.18,.13,.04,.04,.08,.08,.09,.11,.02,.04,.02,.06,.02,.09,0,.03,0,.05-.03,.08l-.46,.66c.25-.1,.47-.16,.65-.2,.19-.04,.35-.06,.49-.06,.14,0,.27,.03,.38,.07,.11,.04,.22,.1,.31,.16,.04,.03,.09,.07,.14,.11s.1,.09,.15,.15c.05,.06,.09,.11,.13,.16,.04,.05,.06,.09,.07,.12,0,.03,.01,.06,0,.08,0,.02-.01,.04-.02,.07,0,.03-.03,.06-.06,.11-.03,.05-.07,.11-.12,.19Z"/><path class="cls-3" d="M154.61,31.99c-.04,.05-.08,.1-.11,.14-.03,.04-.07,.07-.09,.09-.03,.02-.06,.04-.09,.05s-.08,.02-.15,.03c-.07,0-.18,0-.32,0-.14-.01-.29-.04-.45-.09-.16-.05-.32-.11-.48-.19-.16-.08-.32-.18-.47-.29-.31-.24-.55-.5-.71-.79-.16-.29-.25-.6-.26-.92-.01-.32,.05-.66,.19-1.02,.14-.35,.35-.72,.64-1.1,.33-.43,.67-.76,1.01-.99,.34-.23,.68-.37,1.01-.43,.33-.06,.66-.04,.98,.06,.32,.09,.62,.25,.91,.47,.14,.11,.26,.22,.38,.35,.11,.13,.21,.25,.28,.38,.08,.13,.14,.25,.18,.37,.04,.12,.07,.21,.08,.28,0,.07,.01,.12,0,.15,0,.03-.01,.07-.03,.11-.01,.04-.03,.08-.06,.12-.03,.04-.06,.09-.11,.15-.1,.12-.18,.2-.25,.23-.07,.03-.12,.03-.16,0-.05-.04-.08-.11-.11-.21s-.06-.22-.1-.36c-.05-.14-.12-.29-.22-.45s-.24-.31-.42-.45c-.38-.29-.79-.37-1.22-.23-.43,.14-.86,.49-1.29,1.05-.21,.28-.38,.55-.49,.8-.11,.25-.17,.49-.17,.71,0,.22,.04,.42,.14,.61,.1,.18,.24,.35,.44,.5,.18,.14,.37,.24,.55,.28,.18,.05,.35,.08,.51,.09,.16,0,.29,.01,.4,0,.11,0,.19,0,.23,.04,.02,.02,.04,.04,.04,.06,0,.03,0,.06,0,.1-.01,.04-.03,.08-.06,.13s-.07,.11-.12,.17Z"/><path class="cls-3" d="M160.8,34.54c-.1,.12-.21,.18-.31,.17s-.19-.04-.27-.11l-2.71-2.4c-.2,.23-.36,.45-.48,.68-.12,.22-.18,.45-.19,.67s.04,.45,.15,.67,.29,.44,.54,.66c.2,.17,.38,.31,.57,.42,.18,.1,.34,.18,.49,.25,.15,.06,.27,.11,.37,.14,.1,.03,.17,.06,.21,.1,.02,.02,.04,.04,.04,.07,0,.03,0,.05,0,.08s-.03,.07-.06,.11c-.03,.04-.07,.09-.12,.14-.04,.04-.07,.07-.1,.1-.03,.03-.06,.05-.08,.07-.02,.02-.05,.03-.08,.04-.03,0-.06,.01-.09,.02-.03,0-.11-.02-.22-.05-.12-.04-.25-.09-.42-.17-.16-.08-.34-.18-.54-.31-.2-.12-.39-.27-.59-.44-.34-.3-.59-.61-.76-.93-.17-.32-.26-.65-.27-.99s.07-.69,.23-1.05c.16-.36,.4-.72,.73-1.09,.31-.35,.64-.63,.98-.83,.34-.2,.68-.32,1.03-.37,.35-.04,.69,0,1.03,.1,.34,.11,.65,.3,.96,.57,.32,.29,.55,.58,.69,.89,.13,.31,.2,.61,.19,.91,0,.31-.08,.61-.23,.9-.14,.3-.33,.58-.57,.85l-.12,.14Zm-.56-.9c.36-.39,.55-.78,.56-1.17,.01-.39-.16-.75-.53-1.07-.19-.17-.38-.28-.58-.33s-.4-.07-.6-.04c-.2,.03-.39,.1-.58,.21-.19,.11-.36,.24-.52,.4l2.24,1.99Z"/><path class="cls-3" d="M163.37,41.37s-.05,.04-.08,.04c-.03,0-.06,0-.1-.02-.04-.02-.08-.04-.13-.08-.05-.04-.11-.1-.18-.17-.07-.07-.13-.13-.17-.19-.04-.05-.07-.1-.08-.13-.01-.04-.02-.07-.01-.1,0-.03,.02-.05,.04-.07l2.3-2.25c.22-.22,.39-.41,.49-.58,.1-.17,.17-.33,.21-.5,.03-.16,.02-.32-.03-.48-.05-.16-.14-.31-.28-.45-.18-.18-.42-.3-.72-.35-.3-.05-.68-.06-1.12-.02l-2.75,2.68s-.05,.04-.08,.04-.06,0-.1-.02c-.04-.01-.08-.04-.13-.08-.05-.04-.11-.1-.18-.17-.07-.07-.12-.13-.16-.18-.04-.05-.07-.1-.08-.14-.01-.04-.02-.07-.01-.1,0-.03,.02-.05,.04-.07l3.93-3.84s.05-.04,.07-.04c.03,0,.06,0,.1,.01,.04,.01,.08,.04,.12,.07,.04,.04,.1,.09,.17,.16,.06,.06,.11,.12,.15,.17,.04,.05,.06,.09,.07,.12,0,.04,.01,.07,0,.09s-.02,.05-.04,.07l-.52,.51c.46-.02,.86,.02,1.19,.13,.33,.11,.6,.27,.82,.5,.26,.26,.43,.53,.51,.79,.09,.27,.11,.53,.07,.78-.04,.26-.14,.5-.29,.75-.15,.24-.37,.5-.65,.77l-2.4,2.34Z"/><path class="cls-3" d="M170.47,45.31c-.12,.1-.22,.16-.29,.16-.07,.01-.13-.01-.17-.07l-1.6-1.99c-.05-.06-.06-.12-.03-.19,.03-.07,.1-.15,.22-.25s.22-.15,.29-.16c.07,0,.13,.02,.17,.07l1.6,1.99s.04,.05,.04,.08c0,.03,0,.06-.01,.1s-.04,.08-.08,.12c-.04,.04-.08,.09-.14,.13Z"/><path class="cls-3" d="M173.58,54.46c-.06,.04-.12,.07-.17,.1-.05,.02-.1,.04-.14,.04-.04,0-.08,0-.1-.02-.03-.01-.05-.03-.07-.06l-2.08-3.17c-.05-.08-.07-.17-.07-.27,0-.1,.08-.2,.21-.29l5.88-3.87c.13-.09,.25-.11,.35-.08,.1,.04,.17,.09,.22,.17l2.06,3.13s.03,.06,.03,.09,0,.06-.03,.1c-.02,.03-.05,.07-.09,.11s-.09,.08-.16,.12c-.06,.04-.12,.07-.17,.09-.05,.02-.1,.04-.13,.04-.04,0-.07,0-.1-.01-.03-.01-.05-.03-.07-.06l-1.7-2.58-2.07,1.36,1.46,2.21s.03,.06,.03,.09,0,.07-.03,.1c-.02,.03-.05,.07-.09,.11-.04,.04-.1,.08-.16,.12-.06,.04-.12,.07-.17,.09-.05,.02-.09,.03-.13,.04-.04,0-.07,0-.1-.02-.03-.02-.05-.04-.07-.06l-1.46-2.21-2.36,1.55,1.72,2.61s.03,.06,.03,.09c0,.03,0,.07-.02,.1-.02,.04-.05,.07-.09,.11s-.1,.08-.16,.12Z"/><path class="cls-3" d="M176.46,60.14s-.06,.02-.08,.02c-.03,0-.06-.01-.09-.04-.03-.02-.06-.06-.1-.1-.04-.05-.07-.1-.11-.18-.04-.07-.07-.14-.09-.19-.02-.05-.03-.1-.04-.14,0-.04,0-.07,.01-.1,.01-.03,.03-.05,.06-.06l.63-.35c-.42-.1-.77-.24-1.08-.43-.3-.19-.55-.44-.73-.76-.2-.35-.3-.69-.3-1.01,0-.33,.07-.63,.22-.92,.15-.28,.36-.55,.63-.8,.27-.25,.59-.47,.93-.66,.41-.23,.81-.39,1.19-.49,.38-.1,.74-.12,1.07-.08,.33,.04,.63,.16,.9,.34,.27,.19,.5,.45,.69,.79,.16,.28,.24,.57,.25,.87,0,.3-.04,.63-.16,.99l2.79-1.56s.05-.02,.08-.02c.03,0,.06,.01,.09,.04,.03,.03,.07,.07,.11,.12,.04,.05,.08,.12,.13,.2,.05,.09,.09,.16,.11,.23,.02,.06,.04,.11,.04,.15s0,.07-.01,.1c-.02,.03-.03,.05-.06,.06l-7.1,3.97Zm2.88-2.77c.16-.4,.26-.76,.29-1.07s-.02-.58-.16-.82c-.12-.22-.28-.38-.48-.48-.19-.1-.41-.15-.63-.15s-.47,.04-.71,.12c-.25,.08-.48,.18-.71,.31-.24,.14-.47,.29-.68,.45-.21,.17-.38,.35-.51,.54-.13,.19-.2,.4-.23,.61-.02,.21,.03,.44,.16,.67,.07,.12,.14,.22,.24,.31s.21,.17,.35,.25c.14,.07,.3,.13,.49,.19,.19,.06,.41,.11,.66,.15l1.92-1.07Z"/><path class="cls-3" d="M177.76,62.91s-.06,.02-.08,.01-.06-.02-.09-.05c-.03-.03-.06-.07-.1-.12-.03-.06-.07-.13-.12-.22-.04-.09-.07-.17-.09-.23-.02-.06-.03-.12-.03-.16,0-.04,0-.07,.02-.1s.04-.04,.07-.05l4.98-2.32s.05-.02,.08-.01,.06,.02,.09,.05c.03,.03,.06,.07,.1,.12,.03,.06,.07,.13,.11,.22,.04,.09,.08,.17,.1,.23,.02,.06,.03,.11,.03,.15s0,.07-.02,.1-.04,.04-.06,.06l-4.98,2.32Zm6.71-3c-.21,.1-.38,.13-.49,.08-.12-.05-.23-.18-.33-.39-.1-.21-.13-.38-.09-.49,.04-.12,.16-.22,.37-.32,.21-.1,.38-.13,.49-.08,.11,.04,.22,.18,.32,.39,.1,.21,.13,.38,.09,.49-.04,.12-.16,.22-.37,.32Z"/><path class="cls-3" d="M180.1,67.27c-.11,.04-.2,.07-.27,.08-.07,.01-.13,0-.17,0-.04-.02-.09-.05-.14-.1-.05-.05-.1-.11-.15-.18-.05-.07-.1-.15-.14-.23s-.09-.17-.12-.25c-.11-.26-.17-.5-.17-.72,0-.22,.04-.41,.13-.59,.09-.18,.24-.34,.43-.48s.44-.27,.73-.39l2.97-1.21-.29-.71c-.02-.06-.01-.11,.04-.17,.05-.06,.14-.12,.27-.17,.07-.03,.13-.05,.19-.06,.05-.01,.1-.01,.14-.01,.04,0,.07,.01,.09,.03,.02,.02,.04,.04,.05,.07l.29,.71,1.21-.49s.05-.01,.08,0c.03,0,.06,.02,.09,.05,.03,.03,.06,.07,.1,.13,.03,.06,.07,.13,.1,.22,.04,.09,.07,.17,.08,.24,.02,.06,.02,.12,.02,.16,0,.04-.01,.07-.03,.1-.02,.02-.04,.04-.06,.05l-1.21,.49,.53,1.31s.02,.06,.01,.09c0,.03-.02,.06-.04,.09-.03,.03-.06,.06-.11,.09-.05,.03-.1,.06-.18,.09-.14,.06-.24,.08-.31,.07-.07,0-.12-.04-.15-.1l-.53-1.3-2.84,1.16c-.35,.14-.59,.3-.73,.48s-.15,.4-.04,.67c.04,.09,.08,.16,.12,.22,.04,.06,.09,.11,.13,.16,.04,.04,.08,.08,.11,.11,.03,.03,.05,.06,.07,.09,0,.02,0,.04,0,.06,0,.02-.02,.04-.04,.06-.02,.02-.06,.04-.1,.07-.04,.03-.1,.05-.17,.08Z"/><path class="cls-3" d="M184.78,73.48c-.43,.14-.84,.21-1.23,.21s-.76-.06-1.09-.2c-.33-.14-.62-.35-.88-.64s-.45-.65-.6-1.09c-.14-.43-.2-.83-.17-1.19,.03-.36,.12-.69,.3-.98s.42-.55,.73-.76,.69-.4,1.13-.54c.43-.14,.84-.21,1.23-.22,.39,0,.76,.06,1.09,.2,.33,.14,.62,.35,.87,.64,.25,.29,.45,.65,.59,1.1,.14,.43,.2,.83,.17,1.19-.02,.36-.12,.69-.3,.98-.17,.29-.42,.55-.73,.77-.31,.22-.69,.4-1.13,.54Zm-.39-.97c.28-.09,.54-.2,.78-.34,.24-.13,.43-.29,.58-.48,.15-.18,.25-.4,.29-.64,.04-.24,.01-.52-.09-.83-.09-.28-.22-.51-.39-.69-.17-.17-.36-.29-.59-.37-.23-.07-.48-.1-.75-.08-.27,.02-.56,.07-.86,.17-.29,.09-.55,.21-.78,.34-.24,.13-.43,.29-.57,.48-.15,.18-.24,.4-.29,.64-.04,.24-.01,.52,.09,.83,.09,.28,.22,.51,.39,.68,.17,.17,.37,.3,.59,.37,.23,.07,.47,.1,.75,.08,.27-.02,.56-.08,.86-.18Z"/><path class="cls-3" d="M183.56,80.76s-.06,0-.09,0c-.03-.01-.05-.03-.07-.07-.02-.03-.05-.08-.07-.14s-.04-.14-.06-.24c-.02-.1-.04-.18-.04-.25,0-.07,0-.12,0-.16,0-.04,.02-.07,.04-.09,.02-.02,.04-.03,.07-.04l3.14-.68c.31-.07,.55-.14,.72-.23,.18-.09,.32-.19,.44-.31s.19-.26,.23-.42c.04-.16,.04-.34,0-.53-.05-.25-.19-.47-.42-.68-.23-.21-.54-.41-.94-.61l-3.75,.82s-.06,0-.08,0c-.03-.01-.05-.03-.08-.07-.02-.03-.05-.08-.07-.14-.02-.06-.04-.14-.06-.24-.02-.1-.04-.18-.04-.24s0-.12,0-.16c0-.04,.02-.07,.04-.09,.02-.02,.04-.03,.08-.04l5.37-1.17s.06,0,.08,0c.02,0,.05,.03,.08,.06,.03,.03,.05,.08,.07,.13,.02,.05,.04,.13,.06,.22,.02,.09,.03,.16,.04,.22,0,.06,0,.11,0,.14-.01,.04-.03,.06-.04,.08s-.04,.03-.08,.04l-.71,.15c.41,.23,.72,.48,.94,.74,.22,.27,.37,.55,.43,.86,.08,.36,.08,.67,.01,.94-.07,.27-.19,.5-.36,.7-.17,.2-.38,.36-.64,.48-.26,.12-.58,.23-.96,.31l-3.27,.71Z"/><path class="cls-3" d="M187.56,87.02c-.16,.02-.28,0-.35-.07-.08-.07-.12-.15-.14-.26l-.5-3.58c-.3,.04-.57,.11-.8,.21-.23,.09-.43,.23-.58,.39-.15,.17-.26,.37-.32,.61-.06,.24-.07,.52-.02,.85,.04,.26,.09,.49,.16,.68,.07,.2,.14,.36,.22,.51,.07,.14,.14,.25,.19,.34,.06,.09,.09,.16,.09,.21,0,.03,0,.05-.01,.08s-.03,.04-.06,.06c-.03,.02-.07,.03-.12,.04-.05,.01-.11,.03-.18,.04-.05,0-.1,.01-.14,.01s-.07,0-.1,0-.06,0-.09-.02c-.03-.01-.05-.03-.08-.04-.02-.02-.07-.08-.14-.18-.07-.1-.13-.24-.21-.4-.07-.17-.14-.36-.21-.58s-.12-.46-.16-.72c-.06-.45-.05-.85,.02-1.2,.08-.35,.22-.66,.44-.93,.21-.26,.5-.48,.85-.65,.36-.17,.78-.29,1.27-.36,.47-.07,.9-.06,1.29,0,.39,.07,.73,.2,1.02,.39,.29,.19,.53,.44,.71,.74,.18,.3,.3,.65,.36,1.05,.06,.43,.04,.8-.05,1.12-.09,.32-.24,.59-.45,.82-.21,.23-.46,.41-.76,.54-.3,.13-.63,.23-.98,.28l-.18,.03Zm.16-1.04c.53-.06,.92-.24,1.18-.52,.26-.29,.36-.67,.29-1.15-.03-.25-.11-.46-.23-.63-.12-.17-.26-.31-.43-.42-.17-.1-.36-.18-.58-.22-.21-.04-.43-.05-.65-.03l.42,2.97Z"/><path class="cls-3" d="M185.1,93.89s-.06,0-.08-.02c-.02-.01-.04-.04-.06-.08-.02-.03-.03-.08-.05-.15-.01-.06-.02-.15-.03-.24,0-.1,0-.18,0-.25,0-.07,.01-.12,.03-.16,.01-.04,.03-.06,.05-.08,.02-.02,.05-.03,.08-.03l3.21-.2c.31-.02,.56-.06,.75-.12,.19-.06,.35-.14,.48-.24,.13-.1,.23-.23,.29-.38,.06-.15,.09-.33,.08-.52-.02-.25-.12-.5-.32-.74-.19-.24-.47-.49-.83-.74l-3.83,.24s-.06,0-.08-.02-.04-.04-.06-.08c-.02-.04-.04-.09-.05-.15s-.02-.15-.03-.25c0-.1,0-.18,0-.24s.01-.12,.03-.16c.01-.04,.03-.07,.05-.08s.05-.02,.08-.03l5.48-.35s.06,0,.08,.01,.04,.03,.07,.07,.04,.08,.05,.14c0,.06,.02,.13,.02,.22,0,.09,0,.16,0,.22,0,.06-.01,.11-.03,.14-.02,.03-.04,.06-.06,.07-.02,.02-.05,.02-.08,.03l-.72,.05c.36,.29,.64,.58,.82,.88,.18,.3,.28,.6,.3,.91,.02,.37-.02,.68-.13,.93-.11,.26-.26,.47-.46,.64-.2,.17-.43,.29-.71,.38-.27,.08-.61,.14-1,.16l-3.35,.21Z"/></svg>